<svg xmlns="http://www.w3.org/2000/svg" width="39" height="42" viewBox="0 0 39 42"><path d="M25.382 24.282c-.441-.845-1.994-.186-2.777-.896-.217-.197-.676-.601-.91-1.304-.223-.667-.562-1.197-1.131-1.629-1.01-.771-3.397-1.952-3.234-3.531.076-.708.945-.861 1.302-1.375.216-.307.244-.714.501-.995.285-.315-.116-.324-.396-.337-.601-.024-1.051.619-1.551.88-.817.428-1.554 1.028-2.474 1.226-.27.057-1.652.478-.751.699.614.15 1.304.11 1.813.542l1.846 1.813c.335.285.66.551.93.899.311.395.271.848.503 1.267.224.399.665.033.941.258.899.733-.354 1.094-.675 1.434-.422.448-.503.742-1.279 1.051-.342.136-2.558.397-2.828.6-.271.203-.13.262-.059.34.071.077.454.199.621.214.93.086 3.798.618 4.384-.104.401-.493.997-.547 1.657-.37.462.123 1.384.031 2.181-.289.462-.186 1.741-.206 1.385-.392zm-.529 3.52l-.095.053-.096.054.003-.003c-.89.485-1.345 1.24-1.254 2.469.124 1.706 1.398 10.319 1.398 10.319l2.44-.759s-.225-1.397-.505-3.108a12.682 12.682 0 0 0 2.492-1.03 12.493 12.493 0 0 0 2.202-1.525l2.415 2.073 1.952-1.628s-6.755-5.636-8.158-6.644c-1.012-.726-1.9-.752-2.796-.271zm3.273 6.044a6.601 6.601 0 0 1-1.757.664c-.305-1.894-.581-3.61-.617-3.821-.074-.506-.038-.709.146-.81.182-.101.38-.023.772.309.169.142 1.5 1.282 2.971 2.544-.403.404-.882.764-1.515 1.115zM17.85 41.02h2.518V28.742H17.85V41.02zm-4.374-13.111l-.097-.054-.095-.053.005.002c-.893-.486-1.783-.462-2.798.266-1.405 1.005-8.167 6.632-8.167 6.632l1.949 1.631 2.416-2.068c.649.563 1.387 1.08 2.209 1.528.819.445 1.656.787 2.483 1.027l-.509 3.113 2.436.761s1.288-8.613 1.414-10.317c.092-1.226-.356-1.982-1.246-2.468zm-1.095 2.778c-.032.213-.312 1.925-.621 3.821a6.62 6.62 0 0 1-1.766-.672 6.44 6.44 0 0 1-1.504-1.112l2.973-2.539c.397-.331.591-.406.777-.307.183.099.218.303.142.81zm-7.733-.014a17.088 17.088 0 0 1-2.959-6.244c.159.034.351.083.674.187 1.059.339 3.051.982 4.489.326.914-.417 2.501-.757 3.112-.997.576-.229 1.799.296.357-.634l-.006-.003-.075-.038-.146-.042c-.144-.037-1.297.196-1.551.157l-.231-.088c-.628-.336 2.044-2.382 2.132-2.901-.767.079-1.401.558-2.088.856-.807.35-1.689.358-2.555.362-.988.002-1.758.758-2.626 1.106-.454.182-1.2.354-1.702.678l-.1-.635c.015-.371.058-.814.147-1.321.199-1.114.658-1.972 1.678-3.308 0 0 .995-1.176 1.575-1.553.225-.147.471-.367.709-.219.251.157-.071 1.118.606 1.281.41.097.049.762.19 1.15.15.414-1.688 1.99-1.202 2.184.27.11 1.488-.496 2.133-.699.572-.179 1.176-.19 1.802-.766a6.515 6.515 0 0 1 1.283-.917c.521-.43 1.03-.876 1.547-1.314.503-.429.985-.875 1.47-1.326.306-.285 1.688-1.03 1.809-1.291.643-1.366 2.318-2.159 3.566-3.028.229-.159.478-.49.618-.679l.372-.566c.161-.18.2-.314.378-.397.074-.034.352-.036.475.094.404.427.957.79.978 1.237.033.689 1.991 1.288 2.437 1.824.183.221.292.428.368.637a4.734 4.734 0 0 1-.977-.512c-.198-.14-.659-.102-.896-.145-.674-.124-.518.195-.143.574.385.392.827.733 1.179 1.157.405.49.368.889.476 1.473.118.63.498 1.171.808 1.72.318.558.294 1.152.47 1.747.186.596.705 1.099 1.135 1.536.368.381 1.201 1.309 1.658 1.109.483-.213 1.084.366 1.266.209.181-.157-.485-.919-.229-1.155.257-.234 1.37.129 1.595.834.261.81.236.883.193 1.472a1.483 1.483 0 0 1-.451.971c-.328.33-1.092.869-.941 1.418.702-.373 1.464-.41 2.247-.381.763.026 1.32-.284 1.83-.82.225-.235.871-.979 1.239-.608.222.226-.431 1.14.283.951.478-.13.905-.488 1.336-.722l.313-.196a17.072 17.072 0 0 1-3.026 6.339l.521.421c2.524-3.173 4.031-7.163 4.031-11.502 0-10.328-8.522-18.7-19.035-18.7S.159 9.348.159 19.676a18.4 18.4 0 0 0 3.964 11.417l.525-.422zM19.195 3.046c9.437 0 17.171 7.035 17.919 15.981-.292.371-.707.576-1.162.671-1.601.332-2.093-1.028-3.423-1.888-1.335-.865-2.561-1.198-3.797-2.415-.497-.488-.624-1.317-1.117-1.828-.658-.683-1.061-.877-1.953-1.218-1.567-.595-2.912-1.04-4.214-2.098-.221-.181-.739-.418-1.222-.504-.206-.036-.3-.008-.37.076-.192.238-.371.534-.541.815a2.51 2.51 0 0 1-.34.421c-.252.227-.567.507-.808.651-1.308.778-3.037 1.451-3.78 2.768-.141.249-1.57.896-1.9 1.157-.519.414-1.03.827-1.563 1.219l-1.71 1.31c-.276-.1-.556-.19-.817-.241-.615-.12-1.131-.576-1.658-.899-.679-.416-.627-.464-.84-.583l-.352-.201c-.503-.286-.532.004-1.245.434-.597.362-1.283.96-1.795 1.434-.408.373-.826.775-1.251 1.192.611-9.074 8.407-16.252 17.939-16.252z" fill="#D31245"></path></svg>