<svg xmlns="http://www.w3.org/2000/svg" width="112" height="42" viewBox="0 0 112 42"><path d="M111.313 20.041v-6.664c0-2.178-1.343-3.304-3.463-3.304a3.51 3.51 0 0 0-3.047 1.727l-.038-.037v-1.427h-2.044v9.705h2.159v-5.726c0-1.427.927-2.553 2.365-2.553 1.269 0 1.875.657 1.912 2.178v6.101h2.156v.001zm-9.479-4.862c0-2.966-1.797-5.106-4.94-5.106-3.142 0-4.94 2.14-4.94 5.106 0 2.986 1.799 5.125 4.94 5.125 3.143 0 4.94-2.14 4.94-5.125zm-2.156 0c0 1.69-.853 3.435-2.784 3.435-1.93 0-2.782-1.746-2.782-3.435 0-1.67.852-3.416 2.782-3.416 1.931 0 2.784 1.746 2.784 3.416zm-8.462-3.078c.303 0 .625.056.928.093V10.13c-.189-.019-.322-.057-.813-.057-1.325 0-2.612 1.108-2.858 2.14h-.038v-1.877H86.41v9.705h2.156v-4.619c0-2.139 1.174-3.321 2.649-3.321zm-5.848 3.641c.359-2.909-1.533-5.669-4.618-5.669-2.915 0-4.732 2.366-4.732 5.124 0 2.985 1.722 5.107 4.788 5.107 2.139 0 3.955-1.183 4.429-3.304h-2.043c-.379 1.069-1.136 1.613-2.385 1.613-1.797 0-2.632-1.351-2.632-2.872h7.194zm-2.158-1.408h-5.035c.057-1.445 1.079-2.572 2.574-2.572 1.458 0 2.385 1.22 2.46 2.572zm-8.876 5.8c.473 0 .927-.075 1.4-.112v-1.651c-.303.074-.606.074-.909.074-.965 0-1.04-.45-1.04-1.332v-5.18h1.949v-1.596h-1.949v-2.91h-2.158v2.91H70v1.596h1.627v5.726c.038 1.613.454 2.477 2.707 2.477zm-10.731-7.377c0-.845 1.154-.995 1.778-.995.946 0 1.799.281 1.988 1.295h2.251c-.265-2.159-2.081-2.985-4.088-2.985-1.779 0-4.089.658-4.089 2.779 0 1.97 1.552 2.534 3.142 2.871 1.572.357 3.142.489 3.199 1.615.056 1.107-1.363 1.276-2.177 1.276-1.154 0-2.101-.449-2.215-1.689h-2.158c.039 2.29 1.874 3.379 4.334 3.379 2.026 0 4.373-.844 4.373-3.154 0-1.914-1.589-2.477-3.161-2.834-1.589-.356-3.178-.506-3.178-1.557zm-2.244 7.284L56.154 6.638h-2.517l-5.186 13.403h2.441l1.268-3.548h5.395l1.268 3.548h2.536zm-4.429-5.332h-4.126l2.044-5.763h.056l2.026 5.763zM39.789 27.528c-1.459-.506-2.216-2.036-4.947-3.515l.53-.436s-3.004-.909-4.645.531l5.373 2.375-5.755-1.213c.504 2.143 3.444 3.139 3.444 3.139l-.164-.676c3.085.395 4.686.186 6.164-.206zm-.03-12.606c-1.481.441-2.998-.355-6.083.043l.167-.661s-2.967 1.015-3.442 3.137l5.754-1.212-5.372 2.376c1.675 1.44 4.645.528 4.645.528l-.536-.452c2.732-1.477 3.903-2.579 4.866-3.76zm-9.205-4.301c1.335-2.787 1.631-4.363 1.711-5.88-.937 1.221-2.636 1.462-4.899 3.581l-.256-.632s-1.799 2.551-.926 4.546l3.939-4.335-2.938 5.053c2.208.188 4.07-2.278 4.07-2.278l-.702-.054zM26.04 30.414c-.864 2.026.926 4.545.926 4.545l.268-.646c2.261 2.122 3.681 2.887 5.11 3.43-.882-1.26-.586-2.938-1.921-5.727l.686-.046s-1.891-2.485-4.072-2.278l2.941 5.054-3.938-4.331zM22.867 6.262l-.597.364c-.574-3.033-1.268-4.48-2.103-5.753-.034 1.535-1.267 2.72-1.84 5.753l-.582-.364s.057 3.115 1.944 4.219l.617-5.803.618 5.803c1.899-1.137 1.943-4.219 1.943-4.219zM17.565 36.28l.597-.365c.574 3.032 1.269 4.48 2.103 5.752.034-1.533 1.267-2.72 1.841-5.752l.582.364s-.057-3.113-1.946-4.215l-.618 5.801-.615-5.801c-1.898 1.134-1.944 4.216-1.944 4.216zm-3.17-24.152c.862-2.026-.928-4.545-.928-4.545l-.268.645c-2.261-2.121-3.68-2.887-5.11-3.43.881 1.262.587 2.938 1.921 5.728l-.686.044s1.891 2.486 4.071 2.28l-2.938-5.054 3.938 4.333zm-7.752 2.004l.166.677c-3.085-.396-4.688-.188-6.166.203 1.461.509 2.215 2.039 4.948 3.516l-.529.436s3.003.909 4.644-.531L4.334 16.06l5.754 1.209c-.503-2.142-3.445-3.137-3.445-3.137zM.672 27.619c1.483-.438 3.001.357 6.087-.042l-.171.663s2.968-1.018 3.443-3.137l-5.755 1.213 5.373-2.378c-1.675-1.439-4.644-.528-4.644-.528l.535.45c-2.731 1.478-3.904 2.581-4.868 3.76zm9.205 4.302c-1.334 2.789-1.63 4.364-1.709 5.881.937-1.221 2.638-1.464 4.899-3.583l.253.633s1.8-2.551.928-4.545l-3.939 4.336 2.939-5.056c-2.209-.187-4.072 2.281-4.072 2.281l.7.052zm40.958-9.326h-2.366v13.402h9.237v-2.028h-6.871V22.595h.001zm10.031 0h-2.158v2.027h2.158v-2.027zm0 3.698h-2.158v9.705h2.158v-9.705zm2.612 0h-1.609v1.596h1.609v8.11h2.157v-8.111h1.836v-1.596h-1.836v-.995c0-.807.473-1.014 1.06-1.014.435 0 .719.037 1.004.112v-1.671c-.341-.093-.833-.131-1.514-.131-1.401 0-2.707.412-2.707 2.89v.808zm4.088 4.862c0 2.985 1.722 5.106 4.788 5.106 2.139 0 3.956-1.183 4.429-3.304h-2.044c-.379 1.071-1.136 1.615-2.385 1.615-1.797 0-2.63-1.352-2.63-2.872h7.192c.36-2.909-1.533-5.669-4.618-5.669-2.914 0-4.732 2.365-4.732 5.125zm2.158-.865c.056-1.444 1.078-2.572 2.573-2.572 1.458 0 2.385 1.22 2.46 2.572h-5.033z" fill="#008DD0"></path></svg>