<svg xmlns="http://www.w3.org/2000/svg" xmlns:xlink="http://www.w3.org/1999/xlink" width="114px" height="12px" viewBox="0 0 114 12"><title>logo-chubb</title><g id="Page-1" stroke="none" stroke-width="1" fill="none" fill-rule="evenodd"><g id="LifeDirect-Homepage-Desktop-w1440-Master-v01" transform="translate(-503.000000, -797.000000)" fill="#231F20" fill-rule="nonzero"><g id="logo-chubb" transform="translate(503.000000, 797.000000)"><path d="M15.7012839,2.15010029 L15.7012839,0.00920903462 L2.94665507,0.00920903462 C0.98791568,0.00920903462 0,1.05380658 0,2.75015261 L0,9.25926572 C0,10.9554025 0.98791568,12 2.94665507,12 L15.7012839,12 L15.7012839,9.85827156 L2.22195568,9.85827156 L2.22195568,2.15010029 L15.7012839,2.15010029 Z M24.2102682,4.90841545 L24.2102682,0.00920903462 L22.0377787,0.00920903462 L22.0377787,12 L24.2102682,12 L24.2102682,7.01540072 L35.8126974,7.01540072 L35.8126974,12 L37.985187,12 L37.985187,0.00920903462 L35.8126974,0.00920903462 L35.8126974,4.90841545 L24.2102682,4.90841545 Z M59.0847172,0.00920903462 L59.0847172,9.85827156 L47.6463709,9.85827156 L47.6463709,0.00920903462 L45.4738814,0.00920903462 L45.4738814,9.25926572 C45.4738814,10.9554025 46.4607917,12 48.4197321,12 L58.3105517,12 C60.2692911,12 61.2572068,10.9554025 61.2572068,9.25926572 L61.2572068,0.00920903462 L59.0847172,0.00920903462 Z M82.1086019,12 C84.2475107,12 85.2354264,11.0749106 85.2354264,9.48153833 L85.2354264,8.07757914 C85.2354264,7.63198744 85.0870279,7.42603994 84.7745466,7.15228046 L83.3921081,5.919107 L84.7745466,4.68509636 C85.0870279,4.41133688 85.2354264,4.20559867 85.2354264,3.76000698 L85.2354264,2.52683352 C85.2354264,0.933461237 84.2475107,0.00920903462 82.1086019,0.00920903462 L68.7440915,0.00920903462 L68.7440915,12 L82.1086019,12 Z M70.916581,2.04712654 L83.0134707,2.04712654 L83.0134707,4.95906514 L70.916581,4.95906514 L70.916581,2.04712654 Z M83.0134707,9.96124531 L70.916581,9.96124531 L70.916581,6.96307665 L83.0134707,6.96307665 L83.0134707,9.96124531 Z M105.478348,12 C107.618262,12 108.605172,11.0749106 108.605172,9.48153833 L108.605172,8.07757914 C108.605172,7.63198744 108.456975,7.42603994 108.144493,7.15228046 L106.762055,5.919107 L108.144493,4.68509636 C108.456975,4.41133688 108.605172,4.20559867 108.605172,3.76000698 L108.605172,2.52683352 C108.605172,0.933461237 107.618262,0.00920903462 105.478348,0.00920903462 L92.1148425,0.00920903462 L92.1148425,12 L105.478348,12 Z M94.287332,2.04712654 L106.384222,2.04712654 L106.384222,4.95906514 L94.287332,4.95906514 L94.287332,2.04712654 Z M106.383216,9.96124531 L94.2865277,9.96124531 L94.2865277,6.96307665 L106.383216,6.96307665 L106.383216,9.96124531 Z" id="ChubbText"></path><path d="M112.578954,1.53560652 C112.64511,1.5312113 112.703021,1.51907212 112.754096,1.4981425 C112.805171,1.47805006 112.845387,1.44498125 112.876354,1.39956397 C112.907321,1.35414668 112.923407,1.29135781 112.923407,1.21287172 C112.923407,1.14485044 112.910739,1.09085201 112.887212,1.04982995 C112.863083,1.00880788 112.831111,0.975739077 112.79009,0.951251417 C112.749069,0.926135868 112.703021,0.909392169 112.652751,0.900811023 C112.60248,0.892020581 112.548791,0.88762536 112.49269,0.88762536 L112.082885,0.88762536 L112.082885,1.5425133 L112.378676,1.5425133 C112.445838,1.5425133 112.512798,1.54000174 112.578954,1.53560652 M111.859281,2.57957618 L111.859281,0.689631115 L112.555427,0.689631115 C112.760732,0.689631115 112.910739,0.734211215 113.005449,0.823999302 C113.100158,0.912950205 113.14701,1.04292317 113.14701,1.21287172 C113.14701,1.29491585 113.134543,1.36649516 113.111017,1.42844685 C113.086686,1.48935205 113.05411,1.54167611 113.012084,1.58353536 C112.969455,1.6262318 112.920793,1.66034708 112.8663,1.68483474 C112.811002,1.70995029 112.752488,1.72836836 112.690353,1.73967036 L113.230861,2.57957618 L112.969455,2.57957618 L112.458305,1.73967036 L112.082885,1.73967036 L112.082885,2.57957618 L111.859281,2.57957618 Z M111.899498,0.342617947 C111.737828,0.415871632 111.597071,0.515287346 111.478834,0.641702276 C111.360799,0.767280021 111.268503,0.915671056 111.203151,1.08478242 C111.136191,1.25473097 111.103615,1.43786518 111.103615,1.63418505 C111.103615,1.83134211 111.136191,2.01342984 111.203151,2.18358769 C111.268503,2.35353623 111.360799,2.50192727 111.478834,2.62750501 C111.597071,2.75391994 111.737828,2.85333566 111.899498,2.92658934 C112.061168,2.99984303 112.237919,3.03646987 112.428947,3.03646987 C112.617562,3.03646987 112.792704,2.99984303 112.954374,2.92658934 C113.116848,2.85333566 113.256801,2.75391994 113.374836,2.62750501 C113.493072,2.50192727 113.585972,2.35353623 113.653134,2.18358769 C113.720898,2.01342984 113.754479,1.83134211 113.754479,1.63418505 C113.754479,1.43786518 113.720898,1.25473097 113.653134,1.08478242 C113.585972,0.915671056 113.493072,0.767280021 113.374836,0.641702276 C113.256801,0.515287346 113.116848,0.415871632 112.954374,0.342617947 C112.792704,0.269364263 112.617562,0.23273742 112.428947,0.23273742 C112.237919,0.23273742 112.061168,0.269364263 111.899498,0.342617947 M113.049888,0.125577745 C113.240916,0.20824976 113.406808,0.324409174 113.547566,0.472590913 C113.688323,0.619935467 113.798918,0.793442051 113.879351,0.993110665 C113.959784,1.19194209 114,1.40563356 114,1.63418505 C114,1.86608529 113.959784,2.08061394 113.879351,2.277771 C113.798918,2.47576524 113.688323,2.64843464 113.547566,2.79494201 C113.406808,2.94144938 113.240916,3.05572512 113.049888,3.13944362 C112.858056,3.22316212 112.650941,3.26502137 112.428947,3.26502137 C112.206952,3.26502137 112.000039,3.22316212 111.808207,3.13944362 C111.617179,3.05572512 111.451286,2.94144938 111.310529,2.79494201 C111.169771,2.64843464 111.059176,2.47576524 110.978744,2.277771 C110.898311,2.08061394 110.858899,1.86608529 110.858899,1.63418505 C110.858899,1.40563356 110.898311,1.19194209 110.978744,0.993110665 C111.059176,0.793442051 111.169771,0.619935467 111.310529,0.472590913 C111.451286,0.324409174 111.617179,0.20824976 111.808207,0.125577745 C112.000039,0.0418592483 112.206952,0 112.428947,0 C112.650941,0 112.858056,0.0418592483 113.049888,0.125577745" id="RegisteredTrademark"></path></g></g></g></svg>