<svg xmlns="http://www.w3.org/2000/svg" xmlns:xlink="http://www.w3.org/1999/xlink" width="104px" height="35px" viewBox="0 0 104 35"><title>logo-fidelitylife</title><desc>Created with Sketch.</desc><defs><polygon id="path-1" points="0 34.812392 103.907115 34.812392 103.907115 0.000119318182 0 0.000119318182"></polygon></defs><g id="Page-1" stroke="none" stroke-width="1" fill="none" fill-rule="evenodd"><g id="LDS-3110-Update-logos-and-company-name--w1440" transform="translate(-732.000000, -717.000000)"><g id="logo-fidelitylife" transform="translate(732.000000, 717.000000)"><g id="Group-18"><path d="M34.1789649,14.1699886 C35.9354534,14.1699886 36.3371634,17.2356705 36.421316,19.028625 L31.4547206,19.028625 C31.5920641,16.4847614 32.3442779,14.1699886 34.1789649,14.1699886 L34.1789649,14.1699886 Z M39.3865069,20.293 C39.3865069,16.1347614 37.260858,13.0718636 34.1122779,13.0718636 C30.4020183,13.0718636 27.7635145,16.2322045 27.7635145,19.9282841 C27.7635145,24.7618636 30.6909954,26.7847045 34.2901099,26.7847045 C37.1429649,26.7847045 39.3865069,24.5999886 39.3865069,21.553 L38.2552092,21.553 C38.2552092,24.4078864 36.2180794,25.6388523 34.8958504,25.6388523 C33.5974382,25.6388523 31.5396672,24.8322614 31.4352702,20.293 L39.3865069,20.293 Z" id="Fill-1" fill="#001D2D"></path><path d="M48.9221954,6.86 C47.7619206,6.86 46.7897985,7.64551136 46.7897985,8.99659091 C46.7897985,10.2534091 47.8246382,11.0699432 48.9221954,11.0699432 C50.0511115,11.0699432 51.0859511,10.2534091 51.0859511,8.99659091 C51.0859511,7.64551136 50.1451878,6.86 48.9221954,6.86" id="Fill-3" fill="#001D2D"></path><mask id="mask-2" fill="white"><use xlink:href="#path-1"></use></mask><g id="Clip-6"></g><polygon id="Fill-5" fill="#001D2D" mask="url(#mask-2)" points="47.045313 26.543642 50.8301985 26.543642 50.8301985 13.3299489 47.045313 13.3299489"></polygon><polygon id="Fill-7" fill="#001D2D" mask="url(#mask-2)" points="6.99007023 14.5945227 9.11651298 14.5945227 9.11651298 26.5438409 12.9017954 26.5438409 12.9017954 13.3301477 6.99007023 13.3301477"></polygon><path d="M40.9549618,6.86 L40.9549618,26.5439205 L44.7402443,26.5439205 L44.7402443,10.6527273 C44.7402443,8.55829545 43.0452824,6.86 40.9549618,6.86" id="Fill-8" fill="#001D2D" mask="url(#mask-2)"></path><path d="M20.4870076,25.6388125 C19.154458,25.6388125 18.1577252,24.7896648 18.1577252,19.9282443 C18.1577252,17.0590398 18.8567481,14.1699489 20.9057863,14.1699489 C21.5635267,14.1699489 22.0505802,14.5016534 22.4110076,15.0031875 L22.4110076,20.5479034 L22.4110076,24.036767 C22.4110076,24.036767 21.9838931,25.6388125 20.4870076,25.6388125 M22.4110076,6.86011932 L22.4110076,13.3542102 C21.9088702,13.1684716 21.3797405,13.0718239 20.8390992,13.0718239 C17.1292366,13.0718239 14.4907328,16.2321648 14.4907328,19.9282443 C14.4907328,24.7618239 17.208626,26.7846648 20.2678931,26.7846648 C21.3638626,26.7846648 22.4110076,25.8623352 22.4110076,25.8623352 L22.4110076,26.543642 L26.1958931,26.543642 L26.1958931,10.6524489 C26.1958931,8.55801705 24.5013282,6.86011932 22.4110076,6.86011932" id="Fill-9" fill="#001D2D" mask="url(#mask-2)"></path><path d="M70.3774748,17.1218807 L70.3774748,24.5402898 C70.3647725,24.5581875 69.596284,25.6376193 68.615429,25.6376193 C66.9331695,25.6376193 66.5330473,24.0709716 66.5330473,21.916483 L66.5330473,13.3299489 L57.8248336,13.3299489 L57.8248336,10.6524489 C57.8248336,8.55801705 56.1298718,6.86011932 54.0399481,6.86011932 L54.0399481,13.3299489 L51.908742,13.3299489 L51.908742,14.5943239 L54.0399481,14.5943239 L54.0399481,22.6610284 C54.0399481,25.460233 55.7908794,26.7846648 58.2844977,26.7846648 C61.0996427,26.7846648 61.669658,25.6121648 61.669658,25.6121648 L61.669658,24.5386989 C61.669658,24.5386989 60.8960092,25.6376193 59.9068183,25.6376193 C58.2249557,25.6376193 57.8248336,24.0709716 57.8248336,21.916483 L57.8248336,14.5943239 L62.7481618,14.5943239 L62.7481618,22.6610284 C62.7481618,25.460233 64.4994901,26.7846648 66.9931084,26.7846648 C69.7487115,26.7846648 70.3528641,25.6618807 70.3774748,25.6141534 L70.3774748,29.1718239 C70.3774748,32.1686989 67.9422076,35.0279602 65.049658,33.7086989 C66.416742,33.819267 67.4158565,32.9335284 67.4158565,31.5820511 C67.4158565,30.325233 66.3814137,29.5090966 65.2838565,29.5090966 C64.1545435,29.5090966 63.1197038,30.325233 63.1197038,31.5820511 C63.1197038,33.2027898 64.6598565,34.8127898 67.070513,34.8127898 C70.8212611,34.8127898 74.1623603,31.990517 74.1623603,27.8175625 L74.1623603,13.3291534 C72.0720397,13.3291534 70.3774748,15.0270511 70.3774748,17.1218807" id="Fill-10" fill="#001D2D" mask="url(#mask-2)"></path><path d="M102.645261,13.272 C102.645261,19.9037045 97.2797344,25.2793864 90.6614443,25.2793864 L78.6768336,25.2793864 L78.6768336,13.272 C78.6768336,6.64029545 84.0427573,1.26421591 90.6614443,1.26421591 L102.645261,1.26421591 L102.645261,13.272 Z M90.6614443,-0.000159090909 C83.3457191,-0.000159090909 77.4149405,5.94188636 77.4149405,13.272 L77.4149405,26.5437614 L90.6614443,26.5437614 C97.9767725,26.5437614 103.907154,20.6021136 103.907154,13.272 L103.907154,-0.000159090909 L90.6614443,-0.000159090909 Z" id="Fill-11" fill="#001D2D" mask="url(#mask-2)"></path><path d="M96.5491939,11.6169773 C97.7178046,11.6169773 98.1147511,13.4715795 98.2489191,14.6047045 L94.7847664,14.6047045 C94.8788427,12.9640795 95.3333466,11.6169773 96.5491939,11.6169773 M92.7770107,15.3719205 C92.7770107,18.3007841 94.2326137,19.8352159 96.6242168,19.8352159 C98.5581405,19.8352159 99.9478504,18.4857273 99.9478504,16.4207273 L99.2067511,16.4207273 C99.2067511,18.3552727 97.9309649,19.1897045 97.0350565,19.1897045 C96.1451023,19.1897045 94.8046137,18.6308977 94.7661099,15.4614091 L99.9478504,15.4614091 C99.9478504,12.6435114 98.6379267,10.9722614 96.503942,10.9722614 C94.2326137,10.9722614 92.7770107,13.0106136 92.7770107,15.3719205" id="Fill-12" fill="#001D2D" mask="url(#mask-2)"></path><path d="M82.7502595,6.86369886 L82.7502595,19.685233 L84.7397557,19.685233 L84.7397557,8.85710795 C84.7397557,7.75619886 83.8490076,6.86369886 82.7502595,6.86369886" id="Fill-13" fill="#001D2D" mask="url(#mask-2)"></path><path d="M87.2124153,7.46319318 C86.6027053,7.46319318 86.0918351,7.87603409 86.0918351,8.58597727 C86.0918351,9.24660227 86.6356519,9.67575 87.2124153,9.67575 C87.8058504,9.67575 88.3492702,9.24660227 88.3492702,8.58597727 C88.3492702,7.87603409 87.8550718,7.46319318 87.2124153,7.46319318" id="Fill-14" fill="#001D2D" mask="url(#mask-2)"></path><polygon id="Fill-15" fill="#001D2D" mask="url(#mask-2)" points="86.2259237 19.685233 88.2154198 19.685233 88.2154198 10.9722216 86.2259237 10.9722216"></polygon><path d="M9.21840916,5.22772727 C5.46766107,5.22772727 2.12656183,8.04960227 2.12656183,12.2225568 L2.12656183,13.3302273 L0.000119083969,13.3302273 L0.000119083969,14.5946023 L2.12656183,14.5946023 L2.12656183,30.3366477 C4.21688244,30.3366477 5.91144733,28.6383523 5.91144733,26.5439205 L5.91144733,10.8682955 C5.91144733,7.73778409 8.45627176,5.03323864 11.2392641,6.33142045 C9.96387481,6.22880682 8.87306565,7.00715909 8.87306565,8.45767045 C8.87306565,9.71448864 9.90790534,10.5310227 11.0050656,10.5310227 C12.1343786,10.5310227 13.1692183,9.71448864 13.1692183,8.45767045 C13.1692183,6.78602273 11.5897679,5.22772727 9.21840916,5.22772727" id="Fill-16" fill="#001D2D" mask="url(#mask-2)"></path><path d="M89.6851939,10.5647898 L89.6851939,21.6804716 C90.783942,21.6804716 91.6742931,20.7883693 91.6742931,19.6874602 L91.6742931,11.8291648 L93.0767053,11.8291648 L93.0767053,10.9724602 L91.6742931,10.9724602 L91.6742931,9.85285795 C91.6742931,8.33871023 92.8036061,7.19405114 94.1302015,7.48200568 C93.6229038,7.57030114 93.2307206,7.96405114 93.2307206,8.58609659 C93.2307206,9.24672159 93.7745374,9.67586932 94.3513008,9.67586932 C94.9447359,9.67586932 95.4885527,9.24672159 95.4885527,8.58609659 C95.4885527,7.74649432 94.6942626,6.88859659 93.4121252,6.88859659 C91.4408885,6.88859659 89.6851939,8.37172159 89.6851939,10.5647898" id="Fill-17" fill="#001D2D" mask="url(#mask-2)"></path></g></g></g></g></svg>