<svg xmlns="http://www.w3.org/2000/svg" xmlns:xlink="http://www.w3.org/1999/xlink" width="80px" height="52px" viewBox="0 0 80 52"><title>logo-greenwich-life</title><g id="Page-1" stroke="none" stroke-width="1" fill="none" fill-rule="evenodd"><g id="LDS-3847-Greenwich-logo-onsite---Desktop" transform="translate(-937.000000, -787.000000)"><g id="logo-greenwich-life" transform="translate(937.000000, 787.000000)"><path d="M42.595102,20.4522449 C37.2057143,20.4522449 32.8383673,16.0832653 32.8383673,10.6955102 C32.8383673,5.30612245 37.2057143,0.939591837 42.595102,0.939591837 C43.9485714,0.939591837 45.2383673,1.21632653 46.4106122,1.71673469 C44.6522449,0.627755102 42.5804082,0 40.3591837,0 C33.9983673,0 28.8408163,5.15755102 28.8408163,11.5191837 C28.8408163,17.8816327 33.9983673,23.0367347 40.3591837,23.0367347 C45.4955102,23.0367347 49.8473469,19.6759184 51.3330612,15.0318367 C49.7363265,18.2440816 46.4244898,20.4522449 42.595102,20.4522449" id="Path" fill="#B99664" fill-rule="nonzero"></path><path d="M25.6857143,13.4318367 C25.3477551,11.7632653 31.2457143,9.84 38.9763265,9.06122449 C30.1453061,9.19836735 23.1991837,10.6416327 23.1991837,12.4 C23.1991837,13.195102 24.6171429,13.924898 26.9853061,14.4995918 C26.2269388,14.2008163 25.7673469,13.8432653 25.6857143,13.4318367 M54.7853061,10.5861224 C54.8163265,10.6465306 54.842449,10.7102041 54.8546939,10.7746939 C55.2016327,12.4897959 48.9534694,14.4742857 40.8979592,15.2081633 C38.1134694,15.4612245 35.4759184,15.5330612 33.204898,15.4457143 C35.3836735,15.6408163 37.8057143,15.7518367 40.362449,15.7518367 C49.84,15.7518367 57.522449,14.2514286 57.522449,12.4 C57.522449,11.7314286 56.5159184,11.1085714 54.7853061,10.5861224" id="Shape" fill="#B99664" fill-rule="nonzero"></path><line x1="0" y1="43.915102" x2="79.9526531" y2="43.915102" id="Path" fill="#231F20" fill-rule="nonzero"></line><line x1="0" y1="43.915102" x2="79.9526531" y2="43.915102" id="Path" stroke="#231F20" stroke-width="0.242"></line><path d="M30.604898,37.6546939 C30.5404082,37.6546939 30.515102,37.7061224 30.4897959,37.8457143 C30.3991837,38.3714286 30.2465306,38.6261224 29.9142857,38.7673469 C29.5828571,38.9069388 29.0204082,38.9069388 28.6881633,38.9069388 C27.435102,38.9069388 27.2432653,38.7412245 27.2057143,37.8595918 C27.1926531,37.5902041 27.2057143,36.1093878 27.2057143,35.675102 L27.2057143,34.5485714 C27.2057143,34.4979592 27.2310204,34.4604082 27.2955102,34.4604082 C27.5118367,34.4604082 28.7771429,34.4865306 29.122449,34.5240816 C29.6212245,34.5738776 29.7363265,34.7918367 29.7869388,34.9714286 C29.8391837,35.1371429 29.8391837,35.2653061 29.8391837,35.3926531 C29.8391837,35.4579592 29.8628571,35.5069388 29.9273469,35.5069388 C30.0163265,35.5069388 30.0163265,35.3673469 30.0163265,35.2653061 C30.0163265,35.1755102 30.042449,34.7020408 30.0685714,34.4473469 C30.1069388,34.0253061 30.1706122,33.8089796 30.1706122,33.7322449 C30.1706122,33.6538776 30.1453061,33.6285714 30.1069388,33.6285714 C30.0555102,33.6285714 30.0040816,33.6938776 29.9142857,33.795102 C29.8,33.9232653 29.6212245,33.9485714 29.3134694,33.9746939 C29.0204082,33.9991837 27.4473469,33.9991837 27.2816327,33.9991837 C27.2179592,33.9991837 27.2057143,33.9608163 27.2057143,33.8726531 L27.2057143,30.3444898 C27.2057143,30.2555102 27.2310204,30.2171429 27.2816327,30.2171429 C27.4228571,30.2171429 28.8155102,30.2302041 29.0334694,30.2555102 C29.7232653,30.3314286 29.8506122,30.484898 29.9404082,30.6889796 C30.0040816,30.8432653 30.0163265,31.0604082 30.0163265,31.1493878 C30.0163265,31.2522449 30.042449,31.3159184 30.1191837,31.3159184 C30.1706122,31.3159184 30.1967347,31.24 30.2081633,31.1746939 C30.2342857,31.0220408 30.2595918,30.4595918 30.2726531,30.3314286 C30.3110204,29.9738776 30.3746939,29.8212245 30.3746939,29.7314286 C30.3746939,29.6677551 30.362449,29.6163265 30.3232653,29.6163265 C30.2595918,29.6163265 30.2081633,29.6677551 30.1453061,29.68 C30.042449,29.7053061 29.8391837,29.7314286 29.595102,29.7444898 C29.3012245,29.7567347 26.7583673,29.7567347 26.6685714,29.7567347 C26.604898,29.7567347 25.8,29.7183673 25.2244898,29.7183673 C25.0840816,29.7183673 25.0204082,29.7444898 25.0204082,29.8212245 C25.0204082,29.8726531 25.0702041,29.8979592 25.122449,29.8979592 C25.237551,29.8979592 25.4538776,29.9110204 25.5567347,29.9355102 C25.9787755,30.0244898 26.0808163,30.2302041 26.1069388,30.6628571 C26.1314286,31.0734694 26.1314286,31.4302041 26.1314286,33.4253061 L26.1314286,35.675102 C26.1314286,36.9012245 26.1314286,37.9110204 26.0685714,38.4473469 C26.0171429,38.8179592 25.9526531,39.0995918 25.6979592,39.1502041 C25.5820408,39.1763265 25.4293878,39.202449 25.3134694,39.202449 C25.237551,39.202449 25.2114286,39.24 25.2114286,39.2783673 C25.2114286,39.3542857 25.2759184,39.3804082 25.4163265,39.3804082 C25.8,39.3804082 26.604898,39.3420408 26.6685714,39.3420408 C27.0391837,39.3420408 27.8955102,39.4179592 29.8253061,39.4179592 C30.3232653,39.4179592 30.4253061,39.4179592 30.515102,39.0865306 C30.5787755,38.8179592 30.6816327,37.9485714 30.6816327,37.8457143 C30.6816327,37.757551 30.6816327,37.6546939 30.604898,37.6546939 M24.0881633,37.6546939 C24.0236735,37.6546939 23.997551,37.7061224 23.9722449,37.8457143 C23.8832653,38.3714286 23.7297959,38.6261224 23.3967347,38.7673469 C23.0653061,38.9069388 22.5028571,38.9069388 22.1697959,38.9069388 C20.9183673,38.9069388 20.7257143,38.7412245 20.6881633,37.8595918 C20.6759184,37.5902041 20.6881633,36.1093878 20.6881633,35.675102 L20.6881633,34.5485714 C20.6881633,34.4979592 20.7126531,34.4604082 20.7771429,34.4604082 C20.995102,34.4604082 22.2604082,34.4865306 22.604898,34.5240816 C23.1028571,34.5738776 23.2179592,34.7918367 23.2693878,34.9714286 C23.3208163,35.1371429 23.3208163,35.2653061 23.3208163,35.3926531 C23.3208163,35.4579592 23.3461224,35.5069388 23.4097959,35.5069388 C23.4987755,35.5069388 23.4987755,35.3673469 23.4987755,35.2653061 C23.4987755,35.1755102 23.524898,34.7020408 23.5502041,34.4473469 C23.5893878,34.0253061 23.6530612,33.8089796 23.6530612,33.7322449 C23.6530612,33.6538776 23.6269388,33.6285714 23.5893878,33.6285714 C23.5379592,33.6285714 23.4873469,33.6938776 23.3967347,33.795102 C23.282449,33.9232653 23.1028571,33.9485714 22.7967347,33.9746939 C22.5028571,33.9991837 20.9306122,33.9991837 20.7640816,33.9991837 C20.7004082,33.9991837 20.6881633,33.9608163 20.6881633,33.8726531 L20.6881633,30.3444898 C20.6881633,30.2555102 20.7126531,30.2171429 20.7640816,30.2171429 C20.9053061,30.2171429 22.2979592,30.2302041 22.515102,30.2555102 C23.2057143,30.3314286 23.3330612,30.484898 23.4220408,30.6889796 C23.4873469,30.8432653 23.4987755,31.0604082 23.4987755,31.1493878 C23.4987755,31.2522449 23.524898,31.3159184 23.6008163,31.3159184 C23.6530612,31.3159184 23.6783673,31.24 23.6906122,31.1746939 C23.7167347,31.0220408 23.7428571,30.4595918 23.7542857,30.3314286 C23.7934694,29.9738776 23.8571429,29.8212245 23.8571429,29.7314286 C23.8571429,29.6677551 23.8440816,29.6163265 23.8057143,29.6163265 C23.7428571,29.6163265 23.6906122,29.6677551 23.6269388,29.68 C23.524898,29.7053061 23.3208163,29.7314286 23.0767347,29.7444898 C22.7844898,29.7567347 20.2408163,29.7567347 20.1510204,29.7567347 C20.0873469,29.7567347 19.282449,29.7183673 18.7061224,29.7183673 C18.5673469,29.7183673 18.5028571,29.7444898 18.5028571,29.8212245 C18.5028571,29.8726531 18.5534694,29.8979592 18.6040816,29.8979592 C18.7191837,29.8979592 18.9371429,29.9110204 19.0391837,29.9355102 C19.4604082,30.0244898 19.5632653,30.2302041 19.5877551,30.6628571 C19.6138776,31.0734694 19.6138776,31.4302041 19.6138776,33.4253061 L19.6138776,35.675102 C19.6138776,36.9012245 19.6138776,37.9110204 19.5502041,38.4473469 C19.4987755,38.8179592 19.4367347,39.0995918 19.1804082,39.1502041 C19.1706122,39.1526531 19.1591837,39.1526531 19.1502041,39.1559184 C18.8261224,39.0987755 18.2955102,38.9428571 17.6334694,38.2432653 C16.8930612,37.4514286 16.0236735,36.3126531 14.9755102,34.9714286 C16.1257143,33.9102041 16.5216327,32.964898 16.5216327,32.0195918 C16.5216327,31.1371429 15.96,30.5102041 15.6408163,30.2808163 C14.9616327,29.7959184 14.1061224,29.7183673 13.3012245,29.7183673 C12.9044898,29.7183673 11.9338776,29.7567347 11.7926531,29.7567347 C11.7297959,29.7567347 10.9240816,29.7183673 10.3485714,29.7183673 C10.2089796,29.7183673 10.1453061,29.7444898 10.1453061,29.8212245 C10.1453061,29.8726531 10.195102,29.8979592 10.2465306,29.8979592 C10.362449,29.8979592 10.5787755,29.9110204 10.6808163,29.9355102 C11.1028571,30.0244898 11.2040816,30.2302041 11.2310204,30.6628571 C11.2563265,31.0734694 11.2563265,31.4302041 11.2563265,33.4253061 L11.2563265,35.675102 C11.2563265,36.9012245 11.2563265,37.9110204 11.1926531,38.4473469 C11.1404082,38.8179592 11.077551,39.0995918 10.8220408,39.1502041 C10.7069388,39.1763265 10.5534694,39.202449 10.4383673,39.202449 C10.362449,39.202449 10.3355102,39.24 10.3355102,39.2783673 C10.3355102,39.3542857 10.4,39.3804082 10.5404082,39.3804082 C10.9240816,39.3804082 11.7297959,39.3420408 11.7420408,39.3420408 C11.8057143,39.3420408 12.6106122,39.3804082 13.3134694,39.3804082 C13.4546939,39.3804082 13.5191837,39.3420408 13.5191837,39.2783673 C13.5191837,39.24 13.4938776,39.202449 13.4163265,39.202449 C13.3012245,39.202449 13.0212245,39.1763265 12.8408163,39.1502041 C12.4579592,39.0995918 12.3812245,38.8179592 12.3428571,38.4473469 C12.2783673,37.9110204 12.2783673,36.9012245 12.2783673,35.675102 L12.2783673,35.3673469 C12.2783673,35.3020408 12.3036735,35.2653061 12.3681633,35.2653061 L13.9395918,35.2897959 C14.0163265,35.2897959 14.0546939,35.3159184 14.1061224,35.3673469 C14.362449,35.6995918 14.9616327,36.5559184 15.4995918,37.2587755 C16.2285714,38.2171429 16.6742857,38.8432653 17.2244898,39.1371429 C17.557551,39.3159184 17.8767347,39.3804082 18.5918367,39.3804082 L19.4995918,39.3804082 C19.6155102,39.3804082 19.6922449,39.3738776 19.7395918,39.3567347 C19.9542857,39.3493878 20.122449,39.3420408 20.1510204,39.3420408 C20.5216327,39.3420408 21.3779592,39.4179592 23.3077551,39.4179592 C23.8057143,39.4179592 23.9077551,39.4179592 23.997551,39.0865306 C24.0612245,38.8179592 24.1632653,37.9485714 24.1632653,37.8457143 C24.1632653,37.757551 24.1632653,37.6546939 24.0881633,37.6546939 M14.6685714,34.6514286 C14.3738776,34.8555102 14.0163265,34.8938776 13.7102041,34.8938776 C13.1469388,34.8938776 12.5608163,34.8057143 12.3681633,34.6914286 C12.3036735,34.6514286 12.2783673,34.6 12.2783673,34.5371429 L12.2783673,30.3567347 C12.2783673,30.2808163 12.317551,30.2302041 12.3812245,30.2032653 C12.5085714,30.1665306 12.8530612,30.1273469 13.2367347,30.1273469 C14.604898,30.1273469 15.4481633,31.0865306 15.4481633,32.6832653 C15.4481633,33.6538776 15.1159184,34.3444898 14.6685714,34.6514286 M41.2620408,29.7183673 C40.7387755,29.7183673 40.317551,29.7567347 40.1771429,29.7567347 C40.0359184,29.7567347 39.4228571,29.7183673 38.8473469,29.7183673 C38.6938776,29.7183673 38.5910204,29.7314286 38.5910204,29.8081633 C38.5910204,29.8587755 38.604898,29.8979592 38.6938776,29.8979592 C38.7967347,29.8979592 39.0906122,29.9110204 39.32,29.9616327 C39.7167347,30.0628571 39.8065306,30.3444898 39.8195918,31.1746939 L39.9583673,37.6677551 C39.5502041,37.2457143 38.157551,35.6865306 36.8922449,34.3338776 C34.9240816,32.2236735 33.0195918,30.1665306 32.8285714,29.9493878 C32.7012245,29.8212245 32.482449,29.5395918 32.3812245,29.5395918 C32.2783673,29.5395918 32.24,29.68 32.24,30.1795918 L32.2277551,37.5020408 C32.2277551,38.6636735 32.1640816,39.0359184 31.8440816,39.124898 C31.6522449,39.1893878 31.4228571,39.202449 31.32,39.202449 C31.2555102,39.202449 31.2187755,39.2277551 31.2187755,39.2783673 C31.2187755,39.3673469 31.2946939,39.3804082 31.4228571,39.3804082 C31.9983673,39.3804082 32.5346939,39.3420408 32.6497959,39.3420408 C32.7640816,39.3420408 33.275102,39.3804082 34.0040816,39.3804082 C34.157551,39.3804082 34.2334694,39.3542857 34.2334694,39.2783673 C34.2334694,39.2277551 34.195102,39.202449 34.1314286,39.202449 C34.0171429,39.202449 33.7363265,39.1893878 33.4930612,39.124898 C33.1485714,39.0228571 33.0195918,38.6889796 32.9942857,37.642449 L32.8285714,31.5208163 C33.2367347,31.9804082 34.6816327,33.5902041 36.1640816,35.1885714 C37.5183673,36.644898 39.3583673,38.5240816 39.4995918,38.6514286 C40.1771429,39.3297959 40.3297959,39.4693878 40.4334694,39.4693878 C40.5208163,39.4693878 40.5469388,39.4057143 40.5469388,38.5616327 L40.5730612,31.0734694 C40.5730612,30.3061224 40.6228571,30.0244898 41.0457143,29.9355102 C41.1991837,29.8979592 41.2889796,29.8979592 41.3518367,29.8979592 C41.442449,29.8979592 41.4930612,29.8587755 41.4930612,29.8081633 C41.4930612,29.7314286 41.4040816,29.7183673 41.2620408,29.7183673 M9.37795918,34.5877551 C8.99428571,34.5877551 8.18938776,34.6261224 8.12571429,34.6261224 C8.06122449,34.6261224 7.25632653,34.5877551 6.68163265,34.5877551 C6.54040816,34.5877551 6.47673469,34.6130612 6.47673469,34.6914286 C6.47673469,34.7420408 6.52816327,34.7657143 6.57877551,34.7657143 C6.69387755,34.7657143 6.91102041,34.7787755 7.01306122,34.8057143 C7.52489796,34.9461224 7.58857143,35.0857143 7.58857143,36.1208163 L7.58857143,38.2938776 C7.58857143,38.5118367 7.49959184,38.6514286 7.3322449,38.7412245 C7.00163265,38.9330612 6.33632653,39.0106122 5.87591837,39.0106122 C4.69959184,39.0106122 3.53714286,38.6261224 2.52734694,37.642449 C2.08,37.2081633 1.17306122,35.9053061 1.17306122,34.1020408 C1.17306122,32.6073469 1.69632653,31.4432653 2.43836735,30.8555102 C3.40979592,30.0889796 4.36816327,30.0122449 5.17306122,30.0122449 C6.82040816,30.0122449 7.85714286,30.562449 8.17714286,31.0473469 C8.36816327,31.3542857 8.43183673,31.7126531 8.44571429,31.8906122 C8.45795918,32.0073469 8.46938776,32.082449 8.53387755,32.082449 C8.62367347,32.082449 8.64897959,32.0195918 8.64897959,31.8146939 C8.64897959,30.5363265 8.73877551,30.1795918 8.73877551,29.9983673 C8.73877551,29.9493878 8.71265306,29.8979592 8.58530612,29.884898 C8.26530612,29.8726531 7.81795918,29.8212245 7.55020408,29.7567347 C7.30693878,29.7053061 6.40081633,29.5395918 5.59510204,29.5395918 C4.61142857,29.5395918 3.34612245,29.6302041 2.19510204,30.3444898 C1.05795918,31.0604082 0.0612244898,32.5053061 0.0612244898,34.5485714 C0.0612244898,36.1469388 0.80244898,37.515102 1.58204082,38.1910204 C3,39.4310204 4.8155102,39.56 5.78612245,39.56 C6.52816327,39.56 7.67755102,39.4179592 8.4955102,38.9836735 C8.64897959,38.8946939 8.66204082,38.8685714 8.66204082,38.2938776 L8.66204082,36.8620408 C8.66204082,36.3240816 8.66204082,35.9420408 8.68653061,35.5330612 C8.71265306,35.0857143 8.81469388,34.8685714 9.15918367,34.8057143 C9.31346939,34.7787755 9.39102041,34.7657143 9.47918367,34.7657143 C9.53061224,34.7657143 9.58204082,34.7420408 9.58204082,34.6914286 C9.58204082,34.6130612 9.51836735,34.5877551 9.37795918,34.5877551 M58.9053061,39.202449 C58.7902041,39.202449 58.5093878,39.1763265 58.3297959,39.1502041 C57.9477551,39.0995918 57.8693878,38.8179592 57.8326531,38.4473469 C57.7681633,37.9110204 57.7681633,36.9012245 57.7681633,35.675102 L57.7681633,33.4253061 C57.7681633,31.4302041 57.7681633,31.0734694 57.7934694,30.6628571 C57.8195918,30.2171429 57.9216327,29.9983673 58.2677551,29.9355102 C58.4204082,29.9110204 58.4955102,29.8979592 58.5869388,29.8979592 C58.637551,29.8979592 58.6881633,29.8726531 58.6881633,29.8212245 C58.6881633,29.7444898 58.6244898,29.7183673 58.4832653,29.7183673 C58.0995918,29.7183673 57.2963265,29.7567347 57.2318367,29.7567347 C57.1673469,29.7567347 56.362449,29.7183673 55.9420408,29.7183673 C55.7983673,29.7183673 55.7363265,29.7444898 55.7363265,29.8212245 C55.7363265,29.8726531 55.7869388,29.8979592 55.8391837,29.8979592 C55.9273469,29.8979592 56.0938776,29.9110204 56.2342857,29.9493878 C56.5159184,30.0122449 56.6440816,30.2302041 56.6685714,30.6628571 C56.6955102,31.0734694 56.6955102,31.4302041 56.6955102,33.4253061 L56.6955102,35.675102 C56.6955102,36.9012245 56.6955102,37.9110204 56.6318367,38.4473469 C56.5804082,38.8179592 56.5159184,39.0995918 56.2604082,39.1502041 C56.1453061,39.1763265 55.9910204,39.202449 55.8767347,39.202449 C55.7983673,39.202449 55.7746939,39.24 55.7746939,39.2783673 C55.7746939,39.3542857 55.8391837,39.3804082 55.9787755,39.3804082 C56.362449,39.3804082 57.1673469,39.3420408 57.2318367,39.3420408 C57.2963265,39.3420408 58.0995918,39.3804082 58.804898,39.3804082 C58.9444898,39.3804082 59.0089796,39.3420408 59.0089796,39.2783673 C59.0089796,39.24 58.9820408,39.202449 58.9053061,39.202449 M69.1616327,37.0669388 C69.0857143,37.0669388 69.0604082,37.117551 69.0326531,37.2587755 C68.995102,37.4881633 68.8293878,38.0506122 68.56,38.3314286 C68.0497959,38.8563265 67.2955102,38.9722449 66.3371429,38.9722449 C63.6040816,38.9722449 61.724898,36.7338776 61.724898,34.2930612 C61.724898,32.9893878 61.9412245,31.8530612 62.8742857,30.9583673 C63.3216327,30.5232653 64.1134694,30.0244898 65.8130612,30.0244898 C66.9387755,30.0244898 67.9216327,30.3706122 68.3689796,30.7534694 C68.7028571,31.035102 68.9069388,31.5591837 68.9069388,32.0579592 C68.9069388,32.235102 68.9191837,32.3257143 69.0089796,32.3257143 C69.0857143,32.3257143 69.1110204,32.2497959 69.122449,32.0579592 C69.1363265,31.8661224 69.1363265,31.162449 69.1616327,30.7412245 C69.1877551,30.2808163 69.2244898,30.1273469 69.2244898,30.0244898 C69.2244898,29.9493878 69.2,29.8979592 69.0604082,29.884898 C68.6506122,29.8587755 68.2408163,29.7828571 67.7559184,29.6930612 C67.1289796,29.5779592 66.4138776,29.5395918 65.9028571,29.5395918 C63.9355102,29.5395918 62.7714286,30.1404082 62.0032653,30.9077551 C60.8661224,32.044898 60.5730612,33.5395918 60.5730612,34.395102 C60.5730612,35.6089796 60.8808163,37.0669388 62.12,38.1779592 C63.1289796,39.0865306 64.4204082,39.56 66.3371429,39.56 C67.155102,39.56 68.1265306,39.4693878 68.6383673,39.2644898 C68.8677551,39.1632653 68.8922449,39.1371429 68.9697959,38.8946939 C69.0971429,38.4595918 69.2514286,37.3485714 69.2514286,37.2587755 C69.2514286,37.1559184 69.2244898,37.0669388 69.1616327,37.0669388 M79.8946939,39.202449 C79.7812245,39.202449 79.4987755,39.1763265 79.3216327,39.1502041 C78.9387755,39.0995918 78.8612245,38.8179592 78.8228571,38.4473469 C78.7583673,37.9110204 78.7583673,36.9012245 78.7583673,35.675102 L78.7583673,33.4253061 C78.7583673,31.4302041 78.7583673,31.0734694 78.7844898,30.6628571 C78.8097959,30.2171429 78.9126531,29.9983673 79.2571429,29.9355102 C79.4097959,29.9110204 79.4865306,29.8979592 79.5771429,29.8979592 C79.6277551,29.8979592 79.6783673,29.8726531 79.6783673,29.8212245 C79.6783673,29.7444898 79.6138776,29.7183673 79.4742857,29.7183673 C79.0906122,29.7183673 78.2865306,29.7567347 78.2212245,29.7567347 C78.157551,29.7567347 77.3534694,29.7183673 76.7787755,29.7183673 C76.637551,29.7183673 76.5730612,29.7444898 76.5730612,29.8212245 C76.5730612,29.8726531 76.6244898,29.8979592 76.675102,29.8979592 C76.7910204,29.8979592 77.0073469,29.9110204 77.1093878,29.9355102 C77.5322449,30.0244898 77.6342857,30.2302041 77.6604082,30.6628571 C77.6857143,31.0734694 77.6857143,31.4302041 77.6857143,33.4253061 L77.6857143,33.6938776 C77.6857143,33.7567347 77.6473469,33.7697959 77.6081633,33.7697959 L72.1902041,33.7697959 C72.1502041,33.7697959 72.1134694,33.7567347 72.1134694,33.6938776 L72.1134694,33.4253061 C72.1134694,31.4302041 72.1134694,31.0734694 72.1379592,30.6628571 C72.1640816,30.2171429 72.2669388,29.9983673 72.6106122,29.9355102 C72.7640816,29.9110204 72.8416327,29.8979592 72.9297959,29.8979592 C72.9820408,29.8979592 73.0334694,29.8726531 73.0334694,29.8212245 C73.0334694,29.7444898 72.9697959,29.7183673 72.8302041,29.7183673 C72.4457143,29.7183673 71.6383673,29.7567347 71.5771429,29.7567347 C71.5126531,29.7567347 70.7077551,29.7183673 70.1322449,29.7183673 C69.9910204,29.7183673 69.9281633,29.7444898 69.9281633,29.8212245 C69.9281633,29.8726531 69.9795918,29.8979592 70.0310204,29.8979592 C70.1461224,29.8979592 70.362449,29.9110204 70.4653061,29.9355102 C70.8865306,30.0244898 70.9885714,30.2302041 71.0138776,30.6628571 C71.0391837,31.0734694 71.0391837,31.4302041 71.0391837,33.4253061 L71.0391837,35.675102 C71.0391837,36.9012245 71.0391837,37.9110204 70.9755102,38.4473469 C70.924898,38.8179592 70.8595918,39.0995918 70.6057143,39.1502041 C70.4897959,39.1763265 70.3363265,39.202449 70.2212245,39.202449 C70.1461224,39.202449 70.1191837,39.24 70.1191837,39.2783673 C70.1191837,39.3542857 70.1828571,39.3804082 70.3240816,39.3804082 C70.7077551,39.3804082 71.5126531,39.3420408 71.5771429,39.3420408 C71.6383673,39.3420408 72.4457143,39.3804082 73.1469388,39.3804082 C73.2897959,39.3804082 73.3526531,39.3420408 73.3526531,39.2783673 C73.3526531,39.24 73.3265306,39.202449 73.2506122,39.202449 C73.1371429,39.202449 72.8546939,39.1763265 72.6759184,39.1502041 C72.2922449,39.0995918 72.2155102,38.8179592 72.1779592,38.4473469 C72.1134694,37.9110204 72.1134694,36.9012245 72.1134694,35.675102 L72.1134694,34.3338776 C72.1134694,34.2669388 72.1502041,34.2546939 72.1902041,34.2546939 L77.6081633,34.2546939 C77.6473469,34.2546939 77.6857143,34.2816327 77.6857143,34.3338776 L77.6857143,35.675102 C77.6857143,36.9012245 77.6857143,37.9110204 77.6204082,38.4473469 C77.5697959,38.8179592 77.5069388,39.0995918 77.2506122,39.1502041 C77.1355102,39.1763265 76.9828571,39.202449 76.8677551,39.202449 C76.7910204,39.202449 76.764898,39.24 76.764898,39.2783673 C76.764898,39.3542857 76.8293878,39.3804082 76.9706122,39.3804082 C77.3534694,39.3804082 78.157551,39.3420408 78.2212245,39.3420408 C78.2865306,39.3420408 79.0906122,39.3804082 79.7934694,39.3804082 C79.9355102,39.3804082 79.9991837,39.3420408 79.9991837,39.2783673 C79.9991837,39.24 79.9714286,39.202449 79.8946939,39.202449 M47.2497959,32.3885714 C46.9567347,32.9665306 46.6693878,33.6236735 46.404898,34.3314286 C46.1036735,35.1363265 45.8677551,35.9134694 45.7036735,36.6097959 C45.2718367,35.0628571 44.4261224,32.0342857 44.2791837,31.3959184 C44.1559184,30.8473469 44.0432653,30.4097959 44.0432653,30.2481633 C44.0432653,30.0840816 44.1289796,29.9853061 44.204898,29.9477551 C44.3534694,29.8726531 44.5885714,29.8726531 44.6881633,29.8726531 C44.7502041,29.8726531 44.8114286,29.8604082 44.8114286,29.7844898 C44.8114286,29.7346939 44.7616327,29.6971429 44.5885714,29.6971429 C43.9697959,29.6971429 43.4236735,29.7346939 43.3126531,29.7346939 C43.1771429,29.7346939 42.4946939,29.6971429 41.8514286,29.6971429 C41.7281633,29.6971429 41.6530612,29.7216327 41.6530612,29.7844898 C41.6530612,29.8604082 41.7020408,29.8726531 41.764898,29.8726531 C41.8514286,29.8726531 42.1608163,29.884898 42.322449,29.9477551 C42.642449,30.0718367 42.8040816,30.2604082 43.0032653,30.922449 L45.2073469,38.3338776 C45.3869388,38.9485714 45.4693878,39.1893878 45.5469388,39.277551 C45.602449,39.4008163 45.6759184,39.4857143 45.7714286,39.522449 C46.0008163,39.6097959 46.3183673,39.4122449 46.6783673,39 C46.6522449,39.0016327 46.6285714,38.9991837 46.6040816,38.995102 C45.9828571,38.8669388 45.9485714,36.8767347 46.5338776,34.5502041 C46.7363265,33.7461224 46.9844898,33.0073469 47.2497959,32.3885714 M55.4269388,29.6971429 C55.042449,29.6971429 54.5102041,29.7346939 54.4244898,29.7346939 C54.3118367,29.7346939 53.7918367,29.6971429 53.16,29.6971429 C53.0097959,29.6971429 52.9493878,29.7216327 52.9493878,29.7844898 C52.9493878,29.835102 53,29.8726531 53.0604082,29.8726531 C53.6310204,29.8726531 53.7673469,30.0212245 53.7673469,30.2481633 C53.7673469,30.4097959 53.7542857,30.5844898 53.6310204,31.0473469 C53.2016327,32.6342857 51.804898,37.1240816 51.4571429,38.3134694 L51.3012245,37.9461224 C51.3012245,37.9461224 51.2008163,37.9502041 51.2530612,38.317551 C51.437551,39.6114286 51.6473469,39.3640816 51.6473469,39.3640816 L51.7632653,39.0302041 L51.7591837,39.0204082 C52.2881633,37.4579592 53.7346939,32.8220408 54.2620408,31.2840816 C54.4979592,30.5967347 54.6963265,30.0718367 55.0677551,29.9355102 C55.2040816,29.884898 55.4391837,29.8726531 55.4897959,29.8726531 C55.5632653,29.8726531 55.6008163,29.835102 55.6008163,29.7722449 C55.6008163,29.7216327 55.5387755,29.6971429 55.4269388,29.6971429 M49.3297959,30.0146939 C49.0587755,29.9110204 48.6604082,30.2081633 48.2195918,30.7910204 C48.3991837,30.6187755 48.5714286,30.5379592 48.72,30.5681633 C49.324898,30.6922449 49.3722449,32.5771429 48.8383673,34.8204082 C49.7061224,32.3559184 49.9330612,30.2440816 49.3297959,30.0146939" id="Shape" fill="#231F20" fill-rule="nonzero"></path><path d="M0.992653061,50.4089796 C0.992653061,51.0987755 1.00734694,51.4 1.0922449,51.4840816 C1.17061224,51.5632653 1.28734694,51.5926531 1.66530612,51.5926531 C1.91346939,51.5926531 2.12081633,51.5902041 2.23265306,51.4538776 C2.29714286,51.3746939 2.34204082,51.2604082 2.35591837,51.1746939 C2.36489796,51.1289796 2.36897959,51.1028571 2.39755102,51.1028571 C2.42285714,51.1028571 2.4244898,51.1265306 2.4244898,51.1795918 C2.4244898,51.2318367 2.39510204,51.5118367 2.35591837,51.6489796 C2.32571429,51.757551 2.31102041,51.7820408 2.06204082,51.7820408 C1.37877551,51.7820408 1.0644898,51.7526531 0.789387755,51.7526531 C0.747755102,51.7526531 0.464489796,51.76 0.324897959,51.76 C0.271020408,51.76 0.252244898,51.7559184 0.252244898,51.7281633 C0.252244898,51.7069388 0.257142857,51.7004082 0.284897959,51.7004082 C0.327346939,51.7004082 0.382857143,51.6955102 0.431836735,51.6767347 C0.526530612,51.6677551 0.545306122,51.56 0.568979592,51.4228571 C0.587755102,51.2277551 0.587755102,50.8497959 0.587755102,50.3910204 L0.587755102,49.562449 C0.587755102,48.8236735 0.587755102,48.6922449 0.582857143,48.5461224 C0.570612245,48.3828571 0.532244898,48.3053061 0.37877551,48.2742857 C0.33877551,48.2685714 0.257142857,48.2661224 0.215510204,48.2661224 C0.199183673,48.2661224 0.176326531,48.2489796 0.176326531,48.2391837 C0.176326531,48.2114286 0.201632653,48.1918367 0.254693878,48.1918367 C0.464489796,48.1918367 0.764081633,48.2130612 0.789387755,48.2130612 C0.815510204,48.2130612 1.16081633,48.1918367 1.29959184,48.1918367 C1.35346939,48.1918367 1.37877551,48.2114286 1.37877551,48.2391837 C1.37877551,48.2489796 1.35510204,48.2661224 1.33877551,48.2661224 C1.3077551,48.2661224 1.24081633,48.2685714 1.18612245,48.2742857 C1.04816327,48.2979592 1.00734694,48.3795918 0.99755102,48.5461224 C0.992653061,48.6922449 0.992653061,48.8236735 0.992653061,49.562449 L0.992653061,50.4089796 Z" id="Path" fill="#231F20" fill-rule="nonzero"></path><path d="M6.63265306,50.3910204 C6.63265306,50.8497959 6.63265306,51.2277551 6.65877551,51.4236735 C6.67346939,51.56 6.70122449,51.6677551 6.84734694,51.6767347 C6.9077551,51.6955102 7.01387755,51.7004082 7.05632653,51.7004082 C7.08489796,51.7004082 7.09632653,51.7069388 7.09632653,51.7281633 C7.09632653,51.7534694 7.07102041,51.76 7.01714286,51.76 C6.75673469,51.76 6.46285714,51.7534694 6.43755102,51.7534694 C6.4122449,51.7534694 6.11265306,51.76 5.9722449,51.76 C5.91918367,51.76 5.89306122,51.7559184 5.89306122,51.7281633 C5.89306122,51.7069388 5.9044898,51.7004082 5.93306122,51.7004082 C5.97469388,51.7004082 6.03102041,51.6955102 6.08,51.6767347 C6.1755102,51.6677551 6.19346939,51.56 6.21632653,51.4236735 C6.23510204,51.2277551 6.23510204,50.8497959 6.23510204,50.3910204 L6.23510204,49.5632653 C6.23510204,48.8236735 6.23510204,48.6922449 6.23020408,48.5461224 C6.21877551,48.3836735 6.1755102,48.3012245 6.0677551,48.2759184 C6.01469388,48.2685714 5.95591837,48.2669388 5.91918367,48.2669388 C5.90285714,48.2669388 5.87918367,48.2489796 5.87918367,48.2391837 C5.87918367,48.2114286 5.9044898,48.1926531 5.95918367,48.1926531 C6.11265306,48.1926531 6.4122449,48.2138776 6.43755102,48.2138776 C6.46285714,48.2138776 6.75673469,48.1926531 6.90285714,48.1926531 C6.94938776,48.1926531 6.9755102,48.2114286 6.9755102,48.2391837 C6.9755102,48.2489796 6.95918367,48.2669388 6.94285714,48.2669388 C6.90530612,48.2669388 6.87836735,48.2685714 6.82122449,48.2742857 C6.68979592,48.2979592 6.6555102,48.3795918 6.64489796,48.5461224 C6.63265306,48.6922449 6.63265306,48.8236735 6.63265306,49.5632653 L6.63265306,50.3910204 Z" id="Path" fill="#231F20" fill-rule="nonzero"></path><path d="M11.1673469,49.562449 C11.1673469,48.8236735 11.1673469,48.6922449 11.1559184,48.5453061 C11.1453061,48.3828571 11.1126531,48.3044898 10.9518367,48.2742857 C10.9126531,48.2677551 10.8310204,48.2661224 10.7893878,48.2661224 C10.7722449,48.2661224 10.7559184,48.2489796 10.7559184,48.2383673 C10.7559184,48.2114286 10.7755102,48.1918367 10.8277551,48.1918367 C11.044898,48.1918367 11.3379592,48.2130612 11.3632653,48.2130612 C11.4587755,48.2130612 12.4195918,48.2130612 12.5289796,48.2114286 C12.6228571,48.1942857 12.6938776,48.1942857 12.7363265,48.1869388 C12.7640816,48.1689796 12.7877551,48.1608163 12.8040816,48.1608163 C12.8269388,48.1608163 12.8318367,48.1689796 12.8318367,48.1942857 C12.8318367,48.2383673 12.8130612,48.2946939 12.7983673,48.4155102 C12.7902041,48.4661224 12.7779592,48.68 12.7738776,48.7355102 C12.7640816,48.7608163 12.76,48.7885714 12.7330612,48.7885714 C12.7077551,48.7885714 12.7036735,48.7640816 12.7036735,48.7330612 C12.7036735,48.6873469 12.6889796,48.6065306 12.6620408,48.5461224 C12.6269388,48.4906122 12.5240816,48.4065306 12.3363265,48.4032653 L11.6073469,48.3828571 C11.5804082,48.3828571 11.5657143,48.4032653 11.5657143,48.4367347 L11.5657143,49.7469388 C11.5657143,49.76 11.5689796,49.7812245 11.5967347,49.7812245 L12.2016327,49.7787755 C12.2832653,49.7787755 12.3502041,49.7787755 12.4179592,49.7763265 C12.5289796,49.7591837 12.5942857,49.7502041 12.6359184,49.6930612 C12.6522449,49.6669388 12.6661224,49.6416327 12.6889796,49.6416327 C12.7053061,49.6416327 12.7077551,49.6489796 12.7077551,49.6734694 C12.7077551,49.7020408 12.6889796,49.7828571 12.6759184,49.9444898 C12.6644898,50.0318367 12.6522449,50.2228571 12.6522449,50.2530612 C12.6522449,50.3012245 12.6522449,50.3526531 12.6228571,50.3526531 C12.5967347,50.3526531 12.5853061,50.3297959 12.5853061,50.3036735 C12.5828571,50.2530612 12.5795918,50.1918367 12.5567347,50.1355102 C12.5379592,50.0759184 12.4595918,49.9926531 12.3102041,49.9689796 C12.1967347,49.9485714 11.6783673,49.9485714 11.5967347,49.9485714 C11.5714286,49.9485714 11.5657143,49.9657143 11.5657143,49.997551 L11.5657143,50.3902041 C11.5657143,50.8489796 11.5657143,51.2277551 11.5844898,51.4228571 C11.5983673,51.56 11.6334694,51.6669388 11.7730612,51.6767347 C11.8408163,51.6955102 11.9404082,51.6995918 11.9893878,51.6995918 C12.0171429,51.6995918 12.0228571,51.7061224 12.0228571,51.7273469 C12.0228571,51.7526531 11.9967347,51.76 11.9493878,51.76 C11.6881633,51.76 11.3893878,51.7526531 11.3632653,51.7526531 C11.3379592,51.7526531 11.044898,51.76 10.8979592,51.76 C10.8522449,51.76 10.8261224,51.755102 10.8261224,51.7273469 C10.8261224,51.7061224 10.8310204,51.6995918 10.8653061,51.6995918 C10.9077551,51.6995918 10.9632653,51.6955102 11.004898,51.6767347 C11.1012245,51.6669388 11.1265306,51.56 11.1420408,51.4228571 C11.1673469,51.2277551 11.1673469,50.8489796 11.1673469,50.3902041 L11.1673469,49.562449 L11.1673469,49.562449 Z" id="Path" fill="#231F20" fill-rule="nonzero"></path><path d="M16.8155102,49.562449 C16.8155102,48.8236735 16.8155102,48.6922449 16.8040816,48.5453061 C16.7934694,48.3828571 16.7534694,48.3044898 16.6,48.2742857 C16.56,48.2677551 16.4791837,48.2661224 16.4359184,48.2661224 C16.4212245,48.2661224 16.397551,48.2489796 16.397551,48.2383673 C16.397551,48.2114286 16.4236735,48.1918367 16.4767347,48.1918367 C16.6930612,48.1918367 16.9869388,48.2130612 17.0122449,48.2130612 C17.0489796,48.2130612 17.9861224,48.2130612 18.0963265,48.2114286 C18.1893878,48.1942857 18.2612245,48.1902041 18.3004082,48.1861224 C18.3265306,48.1689796 18.3420408,48.1608163 18.3681633,48.1608163 C18.3820408,48.1608163 18.3844898,48.1689796 18.3844898,48.1942857 C18.3844898,48.2383673 18.364898,48.2946939 18.3518367,48.4155102 C18.3420408,48.4661224 18.3306122,48.68 18.3265306,48.7355102 C18.3240816,48.7608163 18.3118367,48.7885714 18.2889796,48.7885714 C18.2612245,48.7885714 18.2563265,48.7640816 18.2563265,48.717551 C18.2563265,48.6873469 18.2465306,48.6065306 18.2277551,48.5502041 C18.1902041,48.4710204 18.1461224,48.4155102 17.8881633,48.3885714 C17.8073469,48.3828571 17.2955102,48.3787755 17.2416327,48.3787755 C17.2187755,48.3787755 17.2138776,48.3885714 17.2138776,48.4310204 L17.2138776,49.7281633 C17.2138776,49.7591837 17.2171429,49.7787755 17.2416327,49.7787755 C17.3004082,49.7787755 17.8857143,49.7787755 17.9959184,49.76 C18.1077551,49.755102 18.1738776,49.7502041 18.2163265,49.7004082 C18.2465306,49.6669388 18.2702041,49.6416327 18.2873469,49.6416327 C18.3004082,49.6416327 18.3118367,49.6465306 18.3118367,49.6734694 C18.3118367,49.7020408 18.2873469,49.7828571 18.2726531,49.9444898 C18.2612245,50.0318367 18.2563265,50.2146939 18.2563265,50.2457143 C18.2563265,50.277551 18.2563265,50.3314286 18.2179592,50.3314286 C18.2,50.3314286 18.1893878,50.3085714 18.1893878,50.2971429 C18.1893878,50.2457143 18.1893878,50.1959184 18.164898,50.1355102 C18.1493878,50.0759184 18.1077551,49.9942857 17.9191837,49.9722449 C17.7934694,49.9502041 17.3257143,49.9461224 17.2440816,49.9461224 C17.2187755,49.9461224 17.2138776,49.9657143 17.2138776,49.9763265 L17.2138776,50.3902041 C17.2138776,50.5518367 17.204898,51.1012245 17.2138776,51.2040816 C17.2277551,51.5330612 17.2979592,51.5902041 17.762449,51.5902041 C17.8857143,51.5902041 18.0930612,51.5902041 18.2163265,51.5379592 C18.3404082,51.4840816 18.395102,51.3942857 18.4253061,51.202449 C18.4383673,51.1485714 18.4489796,51.1265306 18.475102,51.1265306 C18.5020408,51.1265306 18.5020408,51.1730612 18.5020408,51.202449 C18.5020408,51.235102 18.4628571,51.56 18.4383673,51.6514286 C18.4073469,51.7820408 18.3681633,51.7820408 18.1869388,51.7820408 C17.4653061,51.7820408 17.1485714,51.7526531 17.0122449,51.7526531 C16.9869388,51.7526531 16.6930612,51.76 16.5461224,51.76 C16.4930612,51.76 16.4734694,51.755102 16.4734694,51.7273469 C16.4734694,51.7061224 16.4791837,51.6995918 16.5069388,51.6995918 C16.555102,51.6995918 16.6114286,51.6955102 16.6530612,51.6767347 C16.7485714,51.6669388 16.7746939,51.56 16.7902041,51.4228571 C16.8155102,51.2277551 16.8155102,50.8489796 16.8155102,50.3902041 L16.8155102,49.562449 L16.8155102,49.562449 Z" id="Path" fill="#231F20" fill-rule="nonzero"></path><path d="M27.3257143,50.3910204 C27.3257143,50.8497959 27.3257143,51.2277551 27.3510204,51.4236735 C27.364898,51.56 27.3926531,51.6677551 27.5322449,51.6767347 C27.6,51.6955102 27.7077551,51.7004082 27.7485714,51.7004082 C27.7771429,51.7004082 27.7885714,51.7069388 27.7885714,51.7281633 C27.7885714,51.7534694 27.7632653,51.76 27.7093878,51.76 C27.4481633,51.76 27.155102,51.7534694 27.1289796,51.7534694 C27.1053061,51.7534694 26.8040816,51.76 26.6644898,51.76 C26.6106122,51.76 26.5926531,51.7559184 26.5926531,51.7281633 C26.5926531,51.7069388 26.5967347,51.7004082 26.6244898,51.7004082 C26.6669388,51.7004082 26.722449,51.6955102 26.7722449,51.6767347 C26.8604082,51.6677551 26.884898,51.56 26.9077551,51.4236735 C26.9273469,51.2277551 26.9273469,50.8497959 26.9273469,50.3910204 L26.9273469,49.5632653 C26.9273469,48.8236735 26.9273469,48.6922449 26.922449,48.5461224 C26.9110204,48.3836735 26.8604082,48.3012245 26.76,48.2759184 C26.7061224,48.2685714 26.6481633,48.2669388 26.6106122,48.2669388 C26.5934694,48.2669388 26.5787755,48.2489796 26.5787755,48.2391837 C26.5787755,48.2114286 26.5967347,48.1926531 26.6506122,48.1926531 C26.8040816,48.1926531 27.1053061,48.2138776 27.1289796,48.2138776 C27.155102,48.2138776 27.4481633,48.1926531 27.595102,48.1926531 C27.6481633,48.1926531 27.6677551,48.2114286 27.6677551,48.2391837 C27.6677551,48.2489796 27.6506122,48.2669388 27.6277551,48.2669388 C27.5983673,48.2669388 27.5689796,48.2685714 27.5134694,48.2742857 C27.3877551,48.2979592 27.3485714,48.3795918 27.3371429,48.5461224 C27.3257143,48.6922449 27.3257143,48.8236735 27.3257143,49.5632653 L27.3257143,50.3910204 L27.3257143,50.3910204 Z" id="Path" fill="#231F20" fill-rule="nonzero"></path><path d="M31.9844898,51.1240816 C31.9959184,51.5093878 32.04,51.6383673 32.1657143,51.6718367 C32.2587755,51.6971429 32.364898,51.7004082 32.4073469,51.7004082 C32.4334694,51.7004082 32.4473469,51.7044898 32.4473469,51.7281633 C32.4473469,51.7559184 32.4122449,51.76 32.3567347,51.76 C32.0914286,51.76 31.9012245,51.7534694 31.8579592,51.7534694 C31.8163265,51.7534694 31.6155102,51.76 31.404898,51.76 C31.3542857,51.76 31.3265306,51.757551 31.3265306,51.7281633 C31.3265306,51.7044898 31.3395918,51.7004082 31.3657143,51.7004082 C31.404898,51.7004082 31.4889796,51.6971429 31.5583673,51.6718367 C31.6791837,51.642449 31.6979592,51.5044898 31.6979592,51.0710204 L31.7077551,48.3608163 C31.7077551,48.1869388 31.7216327,48.1322449 31.7542857,48.1322449 C31.7934694,48.1322449 31.8742857,48.2391837 31.9257143,48.2759184 C31.9959184,48.3583673 32.6979592,49.1216327 33.4261224,49.8963265 C33.9012245,50.4057143 34.4130612,50.9820408 34.5640816,51.1289796 L34.5183673,48.7355102 C34.5085714,48.4318367 34.477551,48.324898 34.3281633,48.2783673 C34.2457143,48.2685714 34.1363265,48.2669388 34.0963265,48.2669388 C34.0669388,48.2669388 34.0579592,48.2465306 34.0579592,48.2228571 C34.0579592,48.195102 34.0963265,48.1918367 34.1526531,48.1918367 C34.3681633,48.1918367 34.6,48.2138776 34.6457143,48.2138776 C34.6987755,48.2138776 34.8522449,48.1918367 35.0530612,48.1918367 C35.0995918,48.1918367 35.1363265,48.195102 35.1363265,48.2228571 C35.1363265,48.2465306 35.12,48.2669388 35.0832653,48.2669388 C35.0571429,48.2669388 35.0269388,48.2669388 34.9706122,48.2742857 C34.8114286,48.3053061 34.795102,48.4106122 34.795102,48.6922449 L34.7828571,51.4595918 C34.7828571,51.7787755 34.7714286,51.8032653 34.7412245,51.8032653 C34.7012245,51.8032653 34.6457143,51.7518367 34.3967347,51.5028571 C34.3428571,51.4514286 33.6595918,50.7477551 33.1616327,50.2171429 C32.6122449,49.6220408 32.077551,49.0359184 31.9257143,48.8693878 L31.9844898,51.1240816 Z" id="Path" fill="#231F20" fill-rule="nonzero"></path><path d="M38.8832653,51.7028571 C38.8163265,51.6718367 38.8130612,51.6489796 38.8130612,51.5297959 C38.8130612,51.2889796 38.8285714,51.0987755 38.8391837,51.0204082 C38.8408163,50.9804082 38.8522449,50.9534694 38.8742857,50.9534694 C38.9053061,50.9534694 38.9085714,50.9616327 38.9085714,50.9942857 C38.9085714,51.0432653 38.9085714,51.1036735 38.922449,51.1779592 C38.9918367,51.5297959 39.3061224,51.6522449 39.6228571,51.6522449 C40.0759184,51.6522449 40.3004082,51.3379592 40.3004082,51.0212245 C40.3004082,50.7077551 40.1673469,50.5167347 39.757551,50.1714286 L39.5404082,50.002449 C39.0432653,49.5926531 38.9257143,49.2955102 38.9257143,48.9820408 C38.9257143,48.4685714 39.3061224,48.1322449 39.9093878,48.1322449 C40.0906122,48.1322449 40.2277551,48.1428571 40.3477551,48.1697959 C40.4342857,48.1926531 40.4734694,48.195102 40.5134694,48.195102 C40.5526531,48.195102 40.5583673,48.2138776 40.5583673,48.2391837 C40.5583673,48.2514286 40.5420408,48.4106122 40.5420408,48.7355102 C40.5420408,48.8146939 40.5297959,48.8457143 40.5110204,48.8457143 C40.4840816,48.8457143 40.4734694,48.8195918 40.4718367,48.7869388 C40.4693878,48.7183673 40.4342857,48.5991837 40.4097959,48.5461224 C40.3787755,48.4922449 40.2538776,48.2971429 39.8163265,48.2971429 C39.4881633,48.2971429 39.2359184,48.4946939 39.2359184,48.8457143 C39.2359184,49.1167347 39.364898,49.2661224 39.8138776,49.64 L39.9477551,49.7477551 C40.5020408,50.1714286 40.6367347,50.4702041 40.6367347,50.8497959 C40.6367347,51.0432653 40.5583673,51.4 40.2367347,51.6383673 C40.0318367,51.7787755 39.7738776,51.835102 39.522449,51.835102 C39.2938776,51.835102 39.0767347,51.8040816 38.8832653,51.7028571" id="Path" fill="#231F20" fill-rule="nonzero"></path><path d="M44.4587755,49.562449 C44.4587755,48.8236735 44.4587755,48.6922449 44.4473469,48.5453061 C44.4359184,48.3828571 44.3959184,48.3044898 44.2432653,48.2742857 C44.202449,48.2677551 44.1208163,48.2661224 44.0816327,48.2661224 C44.0636735,48.2661224 44.0408163,48.2489796 44.0408163,48.2383673 C44.0408163,48.2114286 44.0669388,48.1918367 44.1191837,48.1918367 C44.3363265,48.1918367 44.6236735,48.2130612 44.6661224,48.2130612 C44.7069388,48.2130612 44.9934694,48.1918367 45.1338776,48.1918367 C45.1869388,48.1918367 45.2130612,48.2114286 45.2130612,48.2383673 C45.2130612,48.2489796 45.1902041,48.2661224 45.1730612,48.2661224 C45.1371429,48.2661224 45.1077551,48.2677551 45.0522449,48.2742857 C44.9273469,48.2971429 44.8865306,48.3787755 44.875102,48.5453061 C44.8702041,48.6922449 44.8702041,48.8236735 44.8702041,49.562449 L44.8702041,50.2228571 C44.8702041,50.9053061 45.0220408,51.202449 45.2269388,51.3942857 C45.4514286,51.6130612 45.6685714,51.6489796 45.9404082,51.6489796 C46.2293878,51.6489796 46.5110204,51.5118367 46.6832653,51.3134694 C46.9020408,51.0432653 46.957551,50.6367347 46.957551,50.1591837 L46.957551,49.562449 C46.957551,48.8236735 46.957551,48.6922449 46.9461224,48.5453061 C46.9338776,48.3828571 46.9020408,48.3044898 46.7412245,48.2742857 C46.7085714,48.2677551 46.6269388,48.2661224 46.5853061,48.2661224 C46.562449,48.2661224 46.5461224,48.2489796 46.5461224,48.2383673 C46.5461224,48.2114286 46.5714286,48.1918367 46.6187755,48.1918367 C46.8342857,48.1918367 47.0946939,48.2130612 47.1232653,48.2130612 C47.1608163,48.2130612 47.3804082,48.1918367 47.52,48.1918367 C47.5746939,48.1918367 47.5991837,48.2114286 47.5991837,48.2383673 C47.5991837,48.2489796 47.5763265,48.2661224 47.56,48.2661224 C47.5232653,48.2661224 47.4946939,48.2661224 47.44,48.2742857 C47.3126531,48.2979592 47.2742857,48.3787755 47.2620408,48.5453061 C47.2579592,48.6922449 47.2579592,48.8236735 47.2579592,49.562449 L47.2579592,50.0759184 C47.2579592,50.5771429 47.2016327,51.1485714 46.8204082,51.4808163 C46.4783673,51.7836735 46.122449,51.835102 45.8457143,51.835102 C45.682449,51.835102 45.2032653,51.8114286 44.8702041,51.5020408 C44.6383673,51.2693878 44.4587755,50.9379592 44.4587755,50.2514286 L44.4587755,49.562449 L44.4587755,49.562449 Z" id="Path" fill="#231F20" fill-rule="nonzero"></path><path d="M51.5069388,49.562449 C51.5069388,48.8236735 51.5069388,48.6922449 51.4963265,48.5453061 C51.4840816,48.3828571 51.4514286,48.3053061 51.2914286,48.2742857 C51.2522449,48.2677551 51.1697959,48.2661224 51.1289796,48.2661224 C51.1126531,48.2661224 51.0955102,48.2489796 51.0955102,48.2383673 C51.0955102,48.2114286 51.1142857,48.1918367 51.1681633,48.1918367 C51.3836735,48.1918367 51.6840816,48.2130612 51.7028571,48.2130612 C51.7567347,48.2130612 52.115102,48.1918367 52.2636735,48.1918367 C52.5640816,48.1918367 52.8808163,48.2212245 53.1297959,48.4065306 C53.2497959,48.4906122 53.4571429,48.715102 53.4571429,49.0432653 C53.4571429,49.3959184 53.3077551,49.7477551 52.882449,50.1355102 C53.2759184,50.6310204 53.595102,51.0473469 53.8693878,51.3444898 C54.1265306,51.6155102 54.3322449,51.6685714 54.4465306,51.6791837 C54.5379592,51.6995918 54.6057143,51.6995918 54.6342857,51.6995918 C54.6579592,51.6995918 54.6759184,51.7061224 54.6759184,51.7273469 C54.6759184,51.755102 54.6489796,51.76 54.5640816,51.76 L54.2253061,51.76 C53.962449,51.76 53.8408163,51.7485714 53.7183673,51.675102 C53.5126531,51.564898 53.3477551,51.3404082 53.0783673,50.9853061 C52.8808163,50.717551 52.6595918,50.4089796 52.5640816,50.277551 C52.5412245,50.2693878 52.5273469,50.2514286 52.4995918,50.2514286 L51.92,50.2457143 C51.8930612,50.2457143 51.8832653,50.2530612 51.8832653,50.277551 L51.8832653,50.3902041 C51.8832653,50.8497959 51.8832653,51.2277551 51.9077551,51.4228571 C51.922449,51.56 51.9493878,51.6669388 52.0963265,51.6767347 C52.157551,51.6955102 52.2636735,51.6995918 52.3061224,51.6995918 C52.3338776,51.6995918 52.3461224,51.7061224 52.3461224,51.7273469 C52.3461224,51.7526531 52.32,51.76 52.2661224,51.76 C52.0057143,51.76 51.7118367,51.7526531 51.6865306,51.7526531 C51.6840816,51.7526531 51.3836735,51.76 51.237551,51.76 C51.1910204,51.76 51.1657143,51.755102 51.1657143,51.7273469 C51.1657143,51.7061224 51.1697959,51.6995918 51.2065306,51.6995918 C51.2465306,51.6995918 51.3020408,51.6955102 51.3453061,51.6767347 C51.4408163,51.6669388 51.4620408,51.56 51.482449,51.4228571 C51.5069388,51.2277551 51.5069388,50.8497959 51.5069388,50.3902041 L51.5069388,49.562449 L51.5069388,49.562449 Z M51.8832653,49.9738776 C51.8832653,50 51.8930612,50.0212245 51.92,50.0310204 C51.9893878,50.077551 52.2081633,50.1085714 52.4155102,50.1085714 C52.5273469,50.1085714 52.6612245,50.0889796 52.7714286,50.0212245 C52.9371429,49.9118367 53.0595918,49.6465306 53.0595918,49.2881633 C53.0595918,48.7053061 52.7453061,48.3493878 52.2383673,48.3493878 C52.0987755,48.3493878 51.9730612,48.357551 51.922449,48.3779592 C51.8963265,48.3828571 51.8832653,48.4065306 51.8832653,48.4342857 L51.8832653,49.9738776 Z" id="Shape" fill="#231F20" fill-rule="nonzero"></path><path d="M58.6261224,48.3061224 C58.682449,48.1608163 58.7053061,48.1322449 58.7330612,48.1322449 C58.7608163,48.1322449 58.7771429,48.1567347 58.8342857,48.2979592 C58.9036735,48.4710204 59.6522449,50.4326531 59.9404082,51.1485714 C60.1093878,51.564898 60.2457143,51.6440816 60.3428571,51.6718367 C60.4195918,51.6963265 60.4889796,51.6995918 60.5338776,51.6995918 C60.5616327,51.6995918 60.5861224,51.7020408 60.5861224,51.7273469 C60.5861224,51.755102 60.5436735,51.76 60.4889796,51.76 C60.4195918,51.76 60.0734694,51.76 59.7477551,51.755102 C59.6546939,51.7526531 59.6016327,51.7526531 59.6016327,51.724898 C59.6016327,51.7020408 59.6163265,51.6963265 59.637551,51.6955102 C59.6669388,51.6767347 59.6930612,51.6416327 59.6669388,51.5632653 L59.2261224,50.4057143 C59.2146939,50.3820408 59.2032653,50.3779592 59.1853061,50.3779592 L58.1608163,50.3779592 C58.1355102,50.3779592 58.1281633,50.3853061 58.1167347,50.4097959 L57.8310204,51.2408163 C57.7885714,51.3665306 57.7632653,51.4791837 57.7632653,51.5632653 C57.7632653,51.6514286 57.8612245,51.6995918 57.9428571,51.6995918 L57.9934694,51.6995918 C58.0244898,51.6995918 58.037551,51.7044898 58.037551,51.7273469 C58.037551,51.755102 58.0097959,51.76 57.9689796,51.76 C57.8563265,51.76 57.6514286,51.7526531 57.5983673,51.7526531 C57.5444898,51.7526531 57.2840816,51.76 57.0620408,51.76 C57.0040816,51.76 56.9771429,51.755102 56.9771429,51.7273469 C56.9771429,51.7044898 56.9926531,51.6995918 57.0187755,51.6995918 C57.0489796,51.6995918 57.1159184,51.6963265 57.1542857,51.6955102 C57.3738776,51.6669388 57.4636735,51.4808163 57.5534694,51.2408163 L58.6261224,48.3061224 Z M59.12,50.197551 C59.1444898,50.197551 59.1444898,50.1893878 59.1363265,50.1665306 L58.6873469,48.8979592 C58.6661224,48.8212245 58.64,48.8212245 58.6146939,48.8979592 L58.2008163,50.1665306 C58.1902041,50.1918367 58.2008163,50.197551 58.2146939,50.197551 L59.12,50.197551 Z" id="Shape" fill="#231F20" fill-rule="nonzero"></path><path d="M64.2334694,51.1240816 C64.2432653,51.5093878 64.2897959,51.6383673 64.4155102,51.6718367 C64.5093878,51.6971429 64.6106122,51.7004082 64.6563265,51.7004082 C64.6783673,51.7004082 64.6889796,51.7044898 64.6889796,51.7281633 C64.6889796,51.7559184 64.6612245,51.76 64.6057143,51.76 C64.3395918,51.76 64.1485714,51.7534694 64.1069388,51.7534694 C64.0587755,51.7534694 63.8636735,51.76 63.6465306,51.76 C63.602449,51.76 63.5755102,51.757551 63.5755102,51.7281633 C63.5755102,51.7044898 63.5885714,51.7004082 63.6138776,51.7004082 C63.6465306,51.7004082 63.7379592,51.6971429 63.8073469,51.6718367 C63.9208163,51.642449 63.9477551,51.5044898 63.9477551,51.0710204 L63.9485714,48.3608163 C63.9485714,48.1869388 63.9657143,48.1322449 64.0040816,48.1322449 C64.0440816,48.1322449 64.1240816,48.2391837 64.1681633,48.2759184 C64.2432653,48.3583673 64.9477551,49.1216327 65.675102,49.8963265 C66.1436735,50.4057143 66.6620408,50.9820408 66.8138776,51.1289796 L66.762449,48.7355102 C66.7591837,48.4318367 66.7257143,48.324898 66.5779592,48.2783673 C66.4946939,48.2685714 66.3844898,48.2669388 66.3469388,48.2669388 C66.3134694,48.2669388 66.3069388,48.2465306 66.3069388,48.2228571 C66.3069388,48.195102 66.3469388,48.1918367 66.4032653,48.1918367 C66.6155102,48.1918367 66.844898,48.2138776 66.8963265,48.2138776 C66.9453061,48.2138776 67.1012245,48.1918367 67.2946939,48.1918367 C67.3485714,48.1918367 67.3836735,48.195102 67.3836735,48.2228571 C67.3836735,48.2465306 67.3632653,48.2669388 67.3330612,48.2669388 C67.3077551,48.2669388 67.275102,48.2669388 67.2187755,48.2742857 C67.0612245,48.3053061 67.0432653,48.4106122 67.0432653,48.6922449 L67.0334694,51.4595918 C67.0334694,51.7787755 67.0204082,51.8032653 66.9893878,51.8032653 C66.9518367,51.8032653 66.8963265,51.7518367 66.6432653,51.5028571 C66.5902041,51.4514286 65.9102041,50.7477551 65.4057143,50.2171429 C64.8538776,49.6220408 64.3265306,49.0359184 64.1681633,48.8693878 L64.2334694,51.1240816 Z" id="Path" fill="#231F20" fill-rule="nonzero"></path><path d="M71.4628571,51.3183673 C71.0106122,50.9077551 70.8922449,50.3779592 70.8922449,49.9208163 C70.8922449,49.6106122 71.002449,49.0612245 71.4269388,48.6310204 C71.7077551,48.3526531 72.1420408,48.1314286 72.8669388,48.1314286 C73.0571429,48.1314286 73.3240816,48.1387755 73.5526531,48.1869388 C73.7363265,48.2179592 73.8930612,48.2457143 74.0391837,48.2506122 C74.0922449,48.2661224 74.0987755,48.2759184 74.0987755,48.3044898 C74.0987755,48.3493878 74.0881633,48.4057143 74.0742857,48.5722449 C74.0653061,48.7330612 74.0653061,48.9861224 74.0636735,49.0644898 C74.0620408,49.1265306 74.0465306,49.1534694 74.0187755,49.1534694 C73.9853061,49.1534694 73.9828571,49.1240816 73.9828571,49.0644898 C73.9828571,48.875102 73.9061224,48.682449 73.7877551,48.5763265 C73.6212245,48.4367347 73.2514286,48.3044898 72.8342857,48.3044898 C72.2032653,48.3044898 71.9077551,48.4922449 71.7436735,48.6546939 C71.402449,48.9844898 71.3208163,49.4 71.3208163,49.8881633 C71.3208163,50.7918367 72.0163265,51.6155102 73.0285714,51.6155102 C73.3828571,51.6155102 73.6620408,51.5681633 73.8538776,51.3746939 C73.9542857,51.2693878 74.0130612,51.0677551 74.0326531,50.9853061 C74.0391837,50.9306122 74.0465306,50.9077551 74.0742857,50.9077551 C74.0987755,50.9077551 74.1142857,50.9379592 74.1142857,50.9853061 C74.1142857,51.0146939 74.0579592,51.4253061 74.0081633,51.5877551 C73.9812245,51.675102 73.9746939,51.6791837 73.8808163,51.724898 C73.7012245,51.8032653 73.3322449,51.8342857 73.0285714,51.8342857 C72.317551,51.8342857 71.842449,51.6514286 71.4628571,51.3183673" id="Path" fill="#231F20" fill-rule="nonzero"></path><path d="M78.0946939,49.562449 C78.0946939,48.8236735 78.0946939,48.6922449 78.0783673,48.5453061 C78.0710204,48.3828571 78.0383673,48.3044898 77.8783673,48.2742857 C77.844898,48.2677551 77.7632653,48.2661224 77.715102,48.2661224 C77.6946939,48.2661224 77.6816327,48.2489796 77.6816327,48.2383673 C77.6816327,48.2114286 77.7077551,48.1918367 77.7608163,48.1918367 C77.9665306,48.1918367 78.2644898,48.2130612 78.2889796,48.2130612 C78.32,48.2130612 79.2710204,48.2130612 79.3795918,48.2114286 C79.4669388,48.1942857 79.5453061,48.1902041 79.5779592,48.1861224 C79.6032653,48.1689796 79.6269388,48.1608163 79.6408163,48.1608163 C79.6595918,48.1608163 79.6620408,48.1689796 79.6620408,48.1942857 C79.6620408,48.2383673 79.6383673,48.2946939 79.6293878,48.4155102 C79.6269388,48.4661224 79.6114286,48.68 79.6032653,48.7355102 C79.6008163,48.7608163 79.5853061,48.7885714 79.5738776,48.7885714 C79.5453061,48.7885714 79.5297959,48.7640816 79.5297959,48.717551 C79.5297959,48.6873469 79.524898,48.6065306 79.5020408,48.5502041 C79.4693878,48.4710204 79.4204082,48.4155102 79.1665306,48.3885714 C79.084898,48.3828571 78.5657143,48.3787755 78.5159184,48.3787755 C78.5028571,48.3787755 78.4881633,48.3885714 78.4881633,48.4310204 L78.4881633,49.7281633 C78.4881633,49.7591837 78.5012245,49.7787755 78.5159184,49.7787755 C78.5853061,49.7787755 79.1640816,49.7787755 79.2734694,49.76 C79.3853061,49.755102 79.4481633,49.7502041 79.4955102,49.7004082 C79.524898,49.6669388 79.5477551,49.6416327 79.5714286,49.6416327 C79.5779592,49.6416327 79.5853061,49.6465306 79.5853061,49.6734694 C79.5853061,49.7020408 79.5714286,49.7828571 79.5510204,49.9444898 C79.5453061,50.0318367 79.5297959,50.2146939 79.5297959,50.2457143 C79.5297959,50.277551 79.5297959,50.3314286 79.4971429,50.3314286 C79.4710204,50.3314286 79.4669388,50.3085714 79.4669388,50.2971429 C79.4669388,50.2457143 79.4669388,50.1959184 79.4432653,50.1355102 C79.4342857,50.0759184 79.3853061,49.9942857 79.1967347,49.9722449 C79.0791837,49.9502041 78.5991837,49.9461224 78.5297959,49.9461224 C78.5028571,49.9461224 78.4881633,49.9657143 78.4881633,49.9763265 L78.4881633,50.3902041 C78.4881633,50.5518367 78.482449,51.1012245 78.4881633,51.2040816 C78.5053061,51.5330612 78.5714286,51.5902041 79.037551,51.5902041 C79.1640816,51.5902041 79.3665306,51.5902041 79.4955102,51.5379592 C79.6114286,51.4840816 79.6685714,51.3942857 79.7110204,51.202449 C79.7159184,51.1485714 79.7232653,51.1265306 79.7485714,51.1265306 C79.7763265,51.1265306 79.7763265,51.1730612 79.7763265,51.202449 C79.7763265,51.235102 79.7412245,51.56 79.7159184,51.6514286 C79.6857143,51.7820408 79.6408163,51.7820408 79.4653061,51.7820408 C78.7493878,51.7820408 78.4269388,51.7526531 78.2889796,51.7526531 C78.2644898,51.7526531 77.9665306,51.76 77.8244898,51.76 C77.7738776,51.76 77.7485714,51.755102 77.7485714,51.7273469 C77.7485714,51.7061224 77.7632653,51.6995918 77.7918367,51.6995918 C77.8285714,51.6995918 77.8857143,51.6955102 77.9322449,51.6767347 C78.0212245,51.6669388 78.0465306,51.56 78.0677551,51.4228571 C78.0946939,51.2277551 78.0946939,50.8489796 78.0946939,50.3902041 L78.0946939,49.562449 L78.0946939,49.562449 Z" id="Path" fill="#231F20" fill-rule="nonzero"></path></g></g></g></svg>