<svg xmlns="http://www.w3.org/2000/svg" xmlns:xlink="http://www.w3.org/1999/xlink" width="74px" height="25px" viewBox="0 0 74 25"><title>logo-nib</title><g id="Page-1" stroke="none" stroke-width="1" fill="none" fill-rule="evenodd"><g id="LDS-5910-Homepage-CRO--Option-12-DESKTOP" transform="translate(-847, -839)" fill="#144B37" fill-rule="nonzero"><g id="logo-nib" transform="translate(847, 839)"><path d="M14.4415839,10.0746269 L9.91698484,10.0746269 L0,10.0746269 L0,14.6711497 L6.71626486,14.6711497 L1.96563761,19.4972938 L5.16635759,22.7488929 L9.91698484,17.9227489 L9.91698484,24.7457766 L14.4415839,24.7457766 L14.4415839,10.0746269 Z M8.82317007,5.71592587 L5.16635759,2.00098409 L1.96563761,5.25258324 L5.62245009,8.96752501 L8.82317007,8.96752501 L8.82317007,5.71592587 L8.82317007,5.71592587 Z M15.5353987,19.0298507 L19.1922112,22.7447925 L22.3929312,19.4931934 L18.7361187,15.7782516 L15.5353987,15.7782516 L15.5353987,19.0298507 L15.5353987,19.0298507 Z M18.7320825,8.96342464 L22.3888949,5.24848286 L19.1922112,1.99688371 L15.5353987,5.71182549 L15.5353987,8.96342464 L18.7320825,8.96342464 L18.7320825,8.96342464 Z M19.188175,14.6711497 L24.3585688,14.6711497 L24.3585688,10.0746269 L19.188175,10.0746269 L16.9238573,12.3749385 L19.188175,14.6711497 Z M14.4415839,5.25258324 L14.4415839,0 L9.91698484,0 L9.91698484,5.25668361 L12.1813025,7.55699524 L14.4415839,5.25258324 Z M64.3615141,20.5551911 C65.0234537,20.5551911 65.6531035,20.4280794 66.2464274,20.173856 C66.8397513,19.9196326 67.3483146,19.5670002 67.7761536,19.1077579 C68.2039926,18.6485157 68.5389986,18.119567 68.789244,17.5168115 C69.0394895,16.9140561 69.1646122,16.2661965 69.1646122,15.565032 C69.1646122,14.8925701 69.0394895,14.2447105 68.789244,13.6337543 C68.5389986,13.0186977 68.2039926,12.4897491 67.7761536,12.0428079 C67.3483146,11.5958668 66.8397513,11.2432344 66.2464274,10.9767099 C65.6531035,10.7101853 65.0234537,10.5789733 64.3615141,10.5789733 C63.6753573,10.5789733 63.0295626,10.7101853 62.42413,10.9767099 C61.8186975,11.2432344 61.2899531,11.5958668 60.841933,12.0428079 C60.3898767,12.4897491 60.0346896,13.0186977 59.7763718,13.6337543 C59.5140177,14.2488109 59.3848587,14.8925701 59.3848587,15.565032 C59.3848587,16.2620961 59.5099815,16.9140561 59.7602269,17.5168115 C60.0104723,18.119567 60.357587,18.6485157 60.8096433,19.1077579 C61.2616996,19.5670002 61.7864078,19.9196326 62.3918403,20.173856 C62.9892004,20.4280794 63.6471037,20.5551911 64.3615141,20.5551911 M64.7853169,25 C63.7399367,25 62.7510636,24.8564868 61.8146613,24.56536 C60.878259,24.2783336 60.0911967,23.880597 59.4494382,23.3721502 L59.4494382,24.7457766 L54.5091088,24.7457766 L54.5091088,0 L59.4534744,0 L59.4534744,7.69640807 C60.0952329,7.19206167 60.8822952,6.78612432 61.8186975,6.48679679 C62.7550998,6.18746925 63.7439729,6.03575529 64.7893531,6.03575529 C66.0203993,6.03575529 67.2030108,6.28177792 68.3291153,6.77792357 C69.4552198,7.26996884 70.4319843,7.94653108 71.263445,8.79940955 C72.0949056,9.65638839 72.7568452,10.6650812 73.2532999,11.8336887 C73.7497546,13.0022962 74,14.2488109 74,15.5732327 C74,16.9222568 73.7497546,18.1687715 73.2532999,19.3127768 C72.7568452,20.456782 72.0908694,21.4490733 71.263445,22.293751 C70.4319843,23.1384287 69.4552198,23.7985895 68.3291153,24.282434 C67.1989746,24.7580777 66.0203993,25 64.7853169,25 M47.5748882,6.21207151 L52.5192538,6.21207151 L52.5192538,24.7457766 L47.5748882,24.7457766 L47.5748882,6.21207151 Z M47.5748882,0 L52.5192538,0 L52.5192538,4.62522552 L47.5748882,4.62522552 L47.5748882,0 Z M33.2422821,8.09004428 C33.6903022,7.56109562 34.3683866,7.0608496 35.268463,6.58930622 C36.1685393,6.11776283 37.2583179,5.88404133 38.5418348,5.88404133 C39.6073961,5.88404133 40.5760881,6.06445793 41.4398386,6.42529113 C42.303589,6.78612432 43.0462529,7.29047072 43.663794,7.9424307 C44.2813352,8.59439068 44.7535726,9.38166311 45.0845424,10.3083484 C45.4155122,11.2350336 45.5809971,12.2519272 45.5809971,13.3631294 L45.5809971,24.7457766 L40.6729573,24.7457766 L40.6729573,14.2324094 C40.6729573,13.1253075 40.3823497,12.2273249 39.8011345,11.5425619 C39.2199193,10.8577989 38.396531,10.5133672 37.3309698,10.5133672 C36.1201047,10.5133672 35.1473765,10.8742004 34.4168212,11.5958668 C33.6822297,12.3175332 33.314934,13.3303264 33.314934,14.630146 L33.314934,24.7457766 L28.3705683,24.7457766 L28.3705683,6.21207151 L33.2422821,6.21207151 L33.2422821,8.09004428 Z" id="Shape"></path></g></g></g></svg>