<svg xmlns="http://www.w3.org/2000/svg" width="124" height="21.38" viewBox="0 0 124 21.38"><defs><style>.cls-1{fill:#004851;}.cls-2{fill:#7cbe71;}</style></defs><g id="Layer_2" data-name="Layer 2"><g id="Layer_1-2" data-name="Layer 1"><path class="cls-1" d="M.44,21.38A.4.4,0,0,1,0,21V6a.4.4,0,0,1,.44-.43H2a.41.41,0,0,1,.46.41l.07.48c0,.17.1.19.17.19s.41-.26.85-.55a4.71,4.71,0,0,1,2.68-.78,5.61,5.61,0,0,1,5.59,5.86A5.66,5.66,0,0,1,6.17,17a4.52,4.52,0,0,1-2.57-.77c-.48-.34-.65-.56-.82-.56s-.17.07-.17.24v5a.4.4,0,0,1-.43.43ZM9.17,11.15a3.32,3.32,0,1,0-6.61,0,3.28,3.28,0,0,0,3.32,3.58,3.3,3.3,0,0,0,3.29-3.58"></path><path class="cls-1" d="M13.4,11.13A5.61,5.61,0,0,1,19,5.27a4.69,4.69,0,0,1,2.68.78c.44.29.66.55.85.55s.15,0,.17-.21l.07-.46a.41.41,0,0,1,.46-.41h1.53a.4.4,0,0,1,.43.43v10.4a.41.41,0,0,1-.43.44H23.22a.42.42,0,0,1-.46-.41l-.07-.46c0-.2-.1-.22-.17-.22s-.41.27-.85.56A4.75,4.75,0,0,1,19,17a5.66,5.66,0,0,1-5.61-5.9m9.22,0a3.32,3.32,0,1,0-6.61,0,3.32,3.32,0,1,0,6.61,0"></path><path class="cls-1" d="M28.18,16.79a.41.41,0,0,1-.43-.44V6a.4.4,0,0,1,.43-.43h1.55a.41.41,0,0,1,.46.41l.12.77c0,.19.1.27.19.27s.2-.08.32-.25a3.06,3.06,0,0,1,2.56-1.35,3.13,3.13,0,0,1,.75.07.38.38,0,0,1,.37.44V7.4c0,.29-.12.39-.37.39h-.77c-1.84,0-3,1-3,3.6v5a.41.41,0,0,1-.43.44Z"></path><path class="cls-1" d="M37.66,13V8a.23.23,0,0,0-.24-.25H36.26a.4.4,0,0,1-.43-.43V6a.4.4,0,0,1,.43-.43h1.16a.23.23,0,0,0,.24-.25V2.54a.41.41,0,0,1,.44-.44h1.77a.41.41,0,0,1,.43.44V5.27a.23.23,0,0,0,.24.25h2A.4.4,0,0,1,43,6V7.33a.4.4,0,0,1-.43.43h-2A.23.23,0,0,0,40.3,8v4.76c0,1.55.58,1.87,1.57,1.87A10.41,10.41,0,0,0,43,14.51c.22,0,.32.1.32.34v1.53c0,.31-.07.41-.41.48a11.09,11.09,0,0,1-1.79.15c-1.14,0-3.49-.27-3.49-4"></path><path class="cls-1" d="M45.62,16.79a.41.41,0,0,1-.43-.44V6a.4.4,0,0,1,.43-.43h1.53a.41.41,0,0,1,.46.41l.07.48c0,.17.1.19.17.19s.41-.26.85-.55a4.67,4.67,0,0,1,2.66-.78c2.46,0,4.25,1.67,4.25,4.7v6.38a.4.4,0,0,1-.43.44H53.41a.41.41,0,0,1-.43-.44V10.84c0-2.35-.85-3.36-2.4-3.36a2.74,2.74,0,0,0-2.76,3v5.88a.41.41,0,0,1-.43.44Z"></path><path class="cls-1" d="M57.62,11.13c0-3.56,2.23-5.86,5.59-5.86a5.18,5.18,0,0,1,5.47,5.49,6.44,6.44,0,0,1-.05.83c0,.29-.17.43-.44.43H60.48c-.15,0-.25.1-.22.29,0,.78.63,2.49,3.14,2.49a2.64,2.64,0,0,0,2.42-1.06.56.56,0,0,1,.53-.29h1.72c.32,0,.39.19.39.34a2.41,2.41,0,0,1-.39,1A5.32,5.32,0,0,1,63.43,17c-3.61,0-5.81-2.37-5.81-5.9M65.85,10c.17,0,.21-.1.21-.34,0-1.26-1.08-2.2-2.83-2.2-2.37,0-3,1.71-3,2.29,0,.22.12.25.22.25Z"></path><path class="cls-1" d="M71.24,16.79a.41.41,0,0,1-.44-.44V6a.4.4,0,0,1,.44-.43h1.55a.41.41,0,0,1,.46.41l.12.77c0,.19.1.27.19.27s.2-.08.32-.25a3.06,3.06,0,0,1,2.56-1.35,3.18,3.18,0,0,1,.75.07.38.38,0,0,1,.36.44V7.4c0,.29-.12.39-.36.39h-.77c-1.84,0-3,1-3,3.6v5a.41.41,0,0,1-.43.44Z"></path><path class="cls-1" d="M79.13,15.75a3.07,3.07,0,0,1-.95-2c0-.39.1-.53.42-.53h1.74c.26,0,.41.09.48.41.24,1.06,1.11,1.35,2.27,1.35,1.31,0,2-.5,2-1.33,0-.63-.26-1-1.54-1.3l-1.87-.49c-2.22-.58-3.12-1.76-3.12-3.19,0-2.13,2-3.39,4.4-3.39a5,5,0,0,1,3.56,1.21,3.3,3.3,0,0,1,1,2c0,.32-.1.44-.43.44H85.37a.46.46,0,0,1-.49-.34c-.24-.82-.89-1.21-2-1.21s-1.74.48-1.74,1.11.34,1,1.38,1.24l2.25.63c2,.55,2.92,1.62,2.92,3.21,0,2.2-1.91,3.51-4.66,3.51a5.62,5.62,0,0,1-3.92-1.28"></path><rect class="cls-1" x="94.92" y="0.29" width="2.64" height="16.5" rx="0.44"></rect><path class="cls-1" d="M100.53,16.33V6a.4.4,0,0,1,.44-.43h1.77a.4.4,0,0,1,.43.43V16.52c0,1.48.85,2.13,1.86,2.13s1.87-.65,1.87-2.13V8a.23.23,0,0,0-.24-.25h-1.34a.4.4,0,0,1-.43-.43V6a.4.4,0,0,1,.43-.43h1.34a.23.23,0,0,0,.24-.25V4.16C106.9.53,109.51,0,111,0a4.23,4.23,0,0,1,2.69.89.43.43,0,0,1,.19.32.52.52,0,0,1-.12.29L113,2.71a.39.39,0,0,1-.32.17.64.64,0,0,1-.31-.12,2.3,2.3,0,0,0-1.23-.39c-.49,0-1.58.1-1.58,1.74V5.27a.24.24,0,0,0,.25.25h2.27a.4.4,0,0,1,.44.43V7.33a.4.4,0,0,1-.44.43h-2.27a.24.24,0,0,0-.25.25v8.32c0,3.12-1.86,4.69-4.5,4.69s-4.5-1.57-4.5-4.69"></path><path class="cls-1" d="M112.94,11.13c0-3.56,2.23-5.86,5.59-5.86A5.18,5.18,0,0,1,124,10.76a6.44,6.44,0,0,1,0,.83c0,.29-.17.43-.43.43H115.8c-.15,0-.24.1-.22.29,0,.78.63,2.49,3.15,2.49a2.65,2.65,0,0,0,2.42-1.06.55.55,0,0,1,.53-.29h1.72c.31,0,.38.19.38.34a2.5,2.5,0,0,1-.38,1A5.35,5.35,0,0,1,118.75,17c-3.6,0-5.81-2.37-5.81-5.9M121.17,10c.17,0,.22-.1.22-.34,0-1.26-1.09-2.2-2.83-2.2-2.37,0-3,1.71-3,2.29,0,.22.12.25.22.25Z"></path><path class="cls-2" d="M100.34,1.57a1.5,1.5,0,1,1,3,0,1.5,1.5,0,0,1-3,0"></path></g></g></svg>