<svg xmlns="http://www.w3.org/2000/svg" xmlns:xlink="http://www.w3.org/1999/xlink" width="119px" height="28px" viewBox="0 0 119 28"><title>logo-southerncross</title><desc>Created with Sketch.</desc><defs><polygon id="path-1" points="0.0001 0.0613 27.9391 0.0613 27.9391 28 0.0001 28"></polygon><polygon id="path-3" points="0.3091 0.4456 6 0.4456 6 6.2396 0.3091 6.2396"></polygon></defs><g id="Page-1" stroke="none" stroke-width="1" fill="none" fill-rule="evenodd"><g id="LDS-3110-Update-logos-and-company-name--w1440" transform="translate(-637.000000, -787.000000)"><g id="insurer-logos-v2" transform="translate(363.000000, 712.000000)"><g id="logo-southerncross" transform="translate(274.000000, 74.000000)"><g id="Group-3" transform="translate(0.000000, 0.939100)"><mask id="mask-2" fill="white"><use xlink:href="#path-1"></use></mask><g id="Clip-2"></g><path d="M25.9731,14.9613 L25.9731,14.9613 C24.5241,14.9613 23.3861,16.1003 23.3861,17.5493 C23.3861,16.1003 22.2481,14.9613 20.7991,14.9613 C22.2481,14.9613 23.3861,13.8233 23.3861,12.3753 C23.3861,13.8233 24.5241,14.9613 25.9731,14.9613 L25.9731,14.9613 Z M18.1091,14.9613 L18.1091,14.9613 C16.6601,14.9613 15.5221,16.1003 15.5221,17.5493 C15.5221,16.1003 14.3831,14.9613 12.9341,14.9613 C14.3831,14.9613 15.5221,13.8233 15.5221,12.3753 C15.5221,13.8233 16.6601,14.9613 18.1091,14.9613 L18.1091,14.9613 Z M19.4541,8.5463 C19.5571,9.8913 20.6961,10.8223 22.0411,10.8223 C20.5921,10.8223 19.4541,11.9613 19.4541,13.4093 C19.4541,11.9613 18.3151,10.8223 16.8671,10.8223 C18.2121,10.8223 19.3501,9.7883 19.4541,8.3393 L19.4541,0.0613 L8.4851,0.0613 L8.4851,8.5463 L0.0001,8.5463 L0.0001,19.5153 L8.4851,19.5153 L8.4851,28.0003 L19.4541,28.0003 L19.4541,24.3783 C19.4541,21.6883 17.2811,19.6183 14.6941,19.6183 C17.3841,19.6183 19.4541,17.4453 19.4541,14.8583 C19.4541,17.4453 21.5231,19.6183 24.2141,19.6183 L27.9391,19.6183 L27.9391,8.5463 L19.4541,8.5463 Z" id="Fill-1" fill="#009BDF" mask="url(#mask-2)"></path></g><path d="M69.5371,17.3496 C69.5371,16.8316 69.7441,16.6246 70.2621,16.6246 L70.4691,16.6246 C70.9861,16.6246 71.1931,16.8316 71.1931,17.3496 L71.1931,23.2476 C71.1931,23.7656 70.9861,23.9726 70.4691,23.9726 L70.2621,23.9726 C69.8481,23.9726 69.5371,23.6616 69.5371,23.2476 L69.5371,17.3496 Z" id="Fill-4" fill="#009BDF"></path><path d="M72.3311,18.5908 C72.3311,18.5908 72.6421,18.3848 72.9521,18.3848 C73.3661,18.3848 73.7801,18.5908 73.8841,19.3158 C74.2981,18.7978 74.8141,18.3848 75.7461,18.3848 C77.1941,18.3848 77.8151,19.4188 77.8151,20.6608 L77.8151,23.3518 C77.8151,23.9728 77.5051,24.0748 77.0921,24.0748 L76.8851,24.0748 C76.4711,24.0748 76.1601,23.8688 76.1601,23.3518 L76.1601,20.9718 C76.1601,20.2468 75.7461,19.8328 75.1251,19.8328 C74.6071,19.8328 74.0911,20.1438 73.8841,20.5578 L73.8841,23.4548 C73.8841,24.0748 73.5731,24.1788 73.1591,24.1788 L72.9521,24.1788 C72.5381,24.1788 72.2271,23.9728 72.2271,23.4548 L72.2271,18.5908 L72.3311,18.5908 Z" id="Fill-6" fill="#009BDF"></path><path d="M79.0576,22.2129 C79.4716,22.6269 80.0916,22.9379 80.9196,22.9379 C81.5406,22.9379 81.8516,22.7309 81.8516,22.4199 C81.8516,22.0059 81.4376,21.9019 80.7126,21.7989 C79.9886,21.5919 78.7466,21.3849 78.7466,20.1439 C78.7466,19.1089 79.6786,18.3849 81.0236,18.3849 C82.4726,18.3849 83.2996,18.9009 83.2996,19.5229 C83.2996,19.9369 82.7826,20.2469 82.7826,20.2469 C82.3696,19.8329 81.8516,19.5229 81.1266,19.5229 C80.5056,19.5229 80.1956,19.7299 80.1956,20.0399 C80.1956,20.4539 80.6096,20.4539 81.3336,20.6609 C82.1616,20.8679 83.4036,21.0749 83.4036,22.3169 C83.4036,23.4549 82.4726,24.0749 80.9196,24.0749 C79.2646,24.0749 78.5396,23.5589 78.5396,22.8339 C78.5396,22.5239 79.0576,22.2129 79.0576,22.2129" id="Fill-8" fill="#009BDF"></path><path d="M84.2314,19.2119 C84.2314,18.5909 84.5424,18.4879 84.9564,18.4879 L85.1634,18.4879 C85.5764,18.4879 85.8864,18.6939 85.8864,19.2119 L85.8864,21.6949 C85.8864,22.4199 86.3004,22.8339 86.9214,22.8339 C87.4394,22.8339 87.8534,22.5239 88.0594,22.1089 L88.0594,19.2119 C88.0594,18.5909 88.3704,18.4879 88.7844,18.4879 L88.9914,18.4879 C89.4054,18.4879 89.7154,18.6939 89.7154,19.2119 L89.7154,23.8689 C89.7154,23.9729 89.4054,24.0749 89.0944,24.0749 C88.6804,24.0749 88.2664,23.8689 88.1634,23.2479 C87.7504,23.7659 87.2324,24.1789 86.4044,24.1789 C84.9564,24.1789 84.3354,23.1449 84.3354,21.9019 L84.3354,19.2119 L84.2314,19.2119 Z" id="Fill-10" fill="#009BDF"></path><path d="M90.5439,18.5908 C90.5439,18.5908 90.8539,18.3848 91.1639,18.3848 C91.5779,18.3848 91.9919,18.5908 92.0959,19.3158 C92.3029,18.6948 92.8199,18.2808 93.4399,18.2808 C94.0619,18.2808 94.4759,18.5908 94.4759,19.2118 C94.4759,19.8328 93.9579,20.0398 93.9579,20.0398 C93.7509,19.8328 93.5439,19.7298 93.2339,19.7298 C92.4059,19.7298 92.0959,20.4538 92.0959,21.4878 L92.0959,23.1448 C92.0959,23.7658 91.7849,23.8688 91.3709,23.8688 L91.1639,23.8688 C90.7499,23.8688 90.4399,23.6618 90.4399,23.1448 L90.4399,18.5908 L90.5439,18.5908 Z" id="Fill-12" fill="#009BDF"></path><path d="M98.4082,20.6611 L98.6152,20.6611 C98.6152,19.9361 98.2012,19.5221 97.4762,19.5221 C96.7522,19.5221 96.3382,19.9361 96.1312,20.3501 C96.1312,20.3501 95.0962,20.4541 95.0962,19.6261 C95.0962,18.9011 95.9252,18.2811 97.5802,18.2811 C99.3392,18.2811 100.1672,19.1081 100.1672,20.5571 L100.1672,23.8691 C100.1672,23.9731 99.8562,24.0751 99.5462,24.0751 C99.0282,24.0751 98.7182,23.7651 98.6152,23.2481 C98.2012,23.8691 97.4762,24.1791 96.7522,24.1791 C95.6142,24.1791 94.8892,23.5581 94.8892,22.6271 C94.8892,21.2821 96.0272,20.6611 98.4082,20.6611 M97.2692,23.0411 C98.0972,23.0411 98.6152,22.5231 98.6152,21.7991 L98.6152,21.4881 L98.3042,21.4881 C97.0622,21.4881 96.4412,21.7991 96.4412,22.4201 C96.4412,22.8341 96.7522,23.0411 97.2692,23.0411" id="Fill-14" fill="#009BDF"></path><path d="M101.2021,18.5908 C101.2021,18.5908 101.5121,18.3848 101.8221,18.3848 C102.2361,18.3848 102.6501,18.5908 102.7541,19.3158 C103.1681,18.7978 103.6851,18.3848 104.6161,18.3848 C106.0651,18.3848 106.6861,19.4188 106.6861,20.6608 L106.6861,23.3518 C106.6861,23.9728 106.3761,24.0748 105.9621,24.0748 L105.7551,24.0748 C105.3411,24.0748 105.0301,23.8688 105.0301,23.3518 L105.0301,20.9718 C105.0301,20.2468 104.6161,19.8328 103.9961,19.8328 C103.4781,19.8328 102.9611,20.1438 102.7541,20.5578 L102.7541,23.4548 C102.7541,24.0748 102.4431,24.1788 102.0291,24.1788 L101.8221,24.1788 C101.4091,24.1788 101.0981,23.9728 101.0981,23.4548 L101.0981,18.5908 L101.2021,18.5908 Z" id="Fill-16" fill="#009BDF"></path><path d="M110.4111,18.3847 C112.0671,18.3847 112.7911,19.3157 112.7911,19.8327 C112.7911,20.4537 111.9641,20.5577 111.8601,20.5577 C111.6531,20.0397 111.2391,19.6257 110.4111,19.6257 C109.5831,19.6257 108.8591,20.2467 108.8591,21.1787 C108.8591,22.1097 109.4801,22.8337 110.4111,22.8337 C111.1361,22.8337 111.5501,22.4197 111.8601,21.9027 C111.8601,21.7987 112.7911,21.9027 112.7911,22.6267 C112.7911,23.1447 112.0671,24.0747 110.4111,24.0747 C108.6521,24.0747 107.5141,22.8337 107.5141,21.1787 C107.4101,19.5227 108.6521,18.3847 110.4111,18.3847" id="Fill-18" fill="#009BDF"></path><g id="Group-22" transform="translate(113.000000, 17.939100)"><mask id="mask-4" fill="white"><use xlink:href="#path-3"></use></mask><g id="Clip-21"></g><path d="M3.2061,0.4456 C4.8611,0.4456 6.0001,1.5836 6.0001,3.2396 L6.0001,3.3426 C6.0001,3.6526 5.8961,3.7566 5.5861,3.7566 L1.7581,3.7566 C1.8611,4.5846 2.4811,5.1016 3.4131,5.1016 C4.2411,5.1016 4.7581,4.6876 4.9651,4.2736 C4.9651,4.2736 5.6891,4.3776 5.6891,4.9986 C5.6891,5.6196 4.8611,6.2396 3.3101,6.2396 C1.5511,6.2396 0.3091,5.1016 0.3091,3.3426 C0.3091,1.6866 1.5511,0.4456 3.2061,0.4456 L3.2061,0.4456 Z M4.4481,2.8256 C4.4481,2.1006 3.9311,1.5836 3.2061,1.5836 C2.4811,1.5836 1.8611,2.1006 1.7581,2.8256 L4.4481,2.8256 Z" id="Fill-20" fill="#009BDF" mask="url(#mask-4)"></path></g><path d="M46.5654,8.6572 C46.5654,8.0362 46.8754,7.9332 47.2894,7.9332 L47.4964,7.9332 C47.9104,7.9332 48.2204,8.1402 48.2204,8.6572 L48.2204,11.1412 C48.2204,11.8652 48.6344,12.2792 49.2554,12.2792 C49.7734,12.2792 50.1874,11.9692 50.4974,11.5542 L50.4974,8.6572 C50.4974,8.0362 50.8074,7.9332 51.2214,7.9332 L51.4284,7.9332 C51.8424,7.9332 52.1524,8.1402 52.1524,8.6572 L52.1524,13.3142 C52.1524,13.4172 51.8424,13.5212 51.5324,13.5212 C51.1184,13.5212 50.7044,13.3142 50.6014,12.6932 C50.1874,13.2102 49.6694,13.6242 48.7384,13.6242 C47.2894,13.6242 46.6694,12.5892 46.6694,11.3472 L46.6694,8.6572 L46.5654,8.6572 Z" id="Fill-23" fill="#009BDF"></path><path d="M53.7051,9.1748 L53.3951,9.1748 C52.9811,9.1748 52.7741,8.9678 52.7741,8.6568 L52.7741,8.5538 C52.7741,8.1398 52.9811,7.9328 53.3951,7.9328 L53.7051,7.9328 L53.7051,7.3118 C53.7051,6.7948 54.0161,6.5878 54.4301,6.5878 L54.5331,6.5878 C54.9471,6.5878 55.2571,6.7948 55.2571,7.3118 L55.2571,8.0368 L56.1881,8.0368 C56.6021,8.0368 56.8091,8.2438 56.8091,8.5538 L56.8091,8.6568 C56.8091,9.0708 56.6021,9.2788 56.1881,9.2788 L55.1541,9.2788 L55.1541,11.6578 C55.1541,12.1758 55.3611,12.4868 55.7751,12.4868 C56.0851,12.4868 56.2921,12.2788 56.4991,12.0718 C56.4991,12.0718 56.9131,12.2788 56.9131,12.6928 C56.9131,13.2108 56.3951,13.7278 55.4641,13.7278 C54.2231,13.7278 53.7051,13.1068 53.7051,11.8648 L53.7051,9.1748 Z" id="Fill-25" fill="#009BDF"></path><path d="M57.7407,5.7597 C57.7407,5.6567 58.0517,5.5527 58.3617,5.5527 C58.8787,5.5527 59.3967,5.7597 59.3967,6.7947 L59.3967,8.7607 C59.7067,8.1397 60.3277,7.7257 61.1557,7.7257 C62.6047,7.7257 63.2257,8.7607 63.2257,10.1057 L63.2257,12.6927 C63.2257,13.3137 62.9147,13.4177 62.5007,13.4177 L62.2937,13.4177 C61.8797,13.4177 61.5697,13.2107 61.5697,12.6927 L61.5697,10.4167 C61.5697,9.6927 61.1557,9.1747 60.5347,9.1747 C59.8107,9.1747 59.2927,9.6927 59.2927,10.4167 L59.2927,12.6927 C59.2927,13.3137 58.9827,13.4177 58.5687,13.4177 L58.3617,13.4177 C57.9477,13.4177 57.6367,13.2107 57.6367,12.6927 L57.6367,5.7597 L57.7407,5.7597 Z" id="Fill-27" fill="#009BDF"></path><path d="M66.8467,7.8296 C68.5027,7.8296 69.6407,8.9676 69.6407,10.6236 L69.6407,10.7266 C69.6407,11.0376 69.5367,11.1416 69.2267,11.1416 L65.3987,11.1416 C65.5017,11.9686 66.1227,12.4866 67.0537,12.4866 C67.8817,12.4866 68.3997,12.0726 68.6067,11.6586 C68.6067,11.6586 69.3297,11.7616 69.3297,12.3826 C69.3297,13.0036 68.5027,13.6246 66.9507,13.6246 C65.1917,13.6246 63.9497,12.4866 63.9497,10.7266 C63.9497,9.0716 65.1917,7.8296 66.8467,7.8296 L66.8467,7.8296 Z M68.1927,10.2096 C68.1927,9.4856 67.6747,8.9676 66.9507,8.9676 C66.2267,8.9676 65.6057,9.4856 65.5017,10.2096 L68.1927,10.2096 Z" id="Fill-29" fill="#009BDF"></path><path d="M70.4688,8.1401 C70.4688,8.1401 70.7798,7.9331 71.0898,7.9331 C71.5038,7.9331 71.9168,8.1401 72.0208,8.8641 C72.2278,8.2441 72.7448,7.8291 73.3658,7.8291 C73.9878,7.8291 74.4008,8.2441 74.4008,8.7611 C74.4008,9.3821 73.8838,9.5891 73.8838,9.5891 C73.6768,9.3821 73.4698,9.2781 73.1588,9.2781 C72.3308,9.2781 72.0208,10.0021 72.0208,11.0371 L72.0208,12.6931 C72.0208,13.3141 71.7098,13.4171 71.2968,13.4171 L71.0898,13.4171 C70.6758,13.4171 70.3648,13.2101 70.3648,12.6931 L70.3648,8.1401 L70.4688,8.1401 Z" id="Fill-31" fill="#009BDF"></path><path d="M75.2285,8.1401 C75.2285,8.1401 75.5395,7.9331 75.8495,7.9331 C76.2635,7.9331 76.6775,8.1401 76.7815,8.8641 C77.1945,8.3471 77.7115,7.9331 78.6435,7.9331 C80.0915,7.9331 80.7125,8.9681 80.7125,10.2091 L80.7125,12.9001 C80.7125,13.5211 80.4025,13.6241 79.9885,13.6241 L79.7825,13.6241 C79.3685,13.6241 79.0575,13.4171 79.0575,12.9001 L79.0575,10.4161 C79.0575,9.6921 78.6435,9.2781 78.0225,9.2781 C77.5045,9.2781 76.9885,9.5891 76.7815,10.0021 L76.7815,12.9001 C76.7815,13.5211 76.4705,13.6241 76.0565,13.6241 L75.8495,13.6241 C75.4355,13.6241 75.1245,13.4171 75.1245,12.9001 L75.1245,8.1401 L75.2285,8.1401 Z" id="Fill-33" fill="#009BDF"></path><path d="M87.543,6.0703 C89.509,6.0703 90.337,7.1053 90.337,7.7263 C90.337,8.4503 89.405,8.6573 89.405,8.5533 C88.991,7.9333 88.37,7.5193 87.647,7.5193 C86.404,7.5193 85.473,8.4503 85.473,9.7953 C85.473,11.1413 86.404,12.0723 87.647,12.0723 C88.474,12.0723 89.198,11.6583 89.509,10.9343 C89.509,10.8303 90.544,11.0373 90.544,11.7613 C90.544,12.3823 89.612,13.5213 87.647,13.5213 C85.473,13.5213 83.921,11.9683 83.921,9.6923 C83.714,7.6223 85.266,6.0703 87.543,6.0703" id="Fill-35" fill="#009BDF"></path><path d="M91.2676,8.1401 C91.2676,8.1401 91.5786,7.9331 91.8886,7.9331 C92.3026,7.9331 92.7166,8.1401 92.8206,8.8641 C93.0276,8.2441 93.5436,7.8291 94.1646,7.8291 C94.7866,7.8291 95.2006,8.2441 95.2006,8.7611 C95.2006,9.3821 94.6826,9.5891 94.6826,9.5891 C94.4756,9.3821 94.2686,9.2781 93.9576,9.2781 C93.1306,9.2781 92.8206,10.0021 92.8206,11.0371 L92.8206,12.6931 C92.8206,13.3141 92.5096,13.4171 92.0956,13.4171 L91.8886,13.4171 C91.4746,13.4171 91.1636,13.2101 91.1636,12.6931 L91.1636,8.1401 L91.2676,8.1401 Z" id="Fill-37" fill="#009BDF"></path><path d="M98.5117,7.8296 C100.2707,7.8296 101.4087,8.9676 101.4087,10.7266 C101.4087,12.4866 100.1667,13.6246 98.4077,13.6246 C96.6487,13.6246 95.5107,12.4866 95.5107,10.7266 C95.5107,9.0716 96.7517,7.8296 98.5117,7.8296 M98.5117,12.3826 C99.4427,12.3826 100.0637,11.6586 100.0637,10.7266 C100.0637,9.7956 99.4427,9.0716 98.5117,9.0716 C97.5797,9.0716 96.9587,9.7956 96.9587,10.7266 C96.9587,11.6586 97.5797,12.3826 98.5117,12.3826" id="Fill-39" fill="#009BDF"></path><path d="M102.4434,11.7617 C102.8574,12.1757 103.4784,12.4867 104.3054,12.4867 C104.9264,12.4867 105.2374,12.2797 105.2374,11.9687 C105.2374,11.5547 104.8234,11.4507 103.9964,11.3477 C103.2714,11.1407 102.0294,10.9337 102.0294,9.6927 C102.0294,8.6577 102.9614,7.9327 104.3054,7.9327 C105.7554,7.9327 106.5834,8.4497 106.5834,9.0717 C106.5834,9.4857 106.0654,9.7957 106.0654,9.7957 C105.6514,9.3817 105.1334,9.0717 104.4094,9.0717 C103.7894,9.0717 103.4784,9.2787 103.4784,9.5887 C103.4784,10.0027 103.8924,10.0027 104.6164,10.2097 C105.4444,10.4167 106.6864,10.6237 106.6864,11.8657 C106.6864,13.0037 105.7554,13.6247 104.2024,13.6247 C102.5474,13.6247 101.8224,13.1067 101.8224,12.3827 C102.0294,11.9687 102.4434,11.7617 102.4434,11.7617" id="Fill-41" fill="#009BDF"></path><path d="M107.9277,11.7617 C108.3417,12.1757 108.9627,12.4867 109.7897,12.4867 C110.4107,12.4867 110.7217,12.2797 110.7217,11.9687 C110.7217,11.5547 110.3077,11.4507 109.4807,11.3477 C108.7557,11.1407 107.5137,10.9337 107.5137,9.6927 C107.5137,8.6577 108.4457,7.9327 109.7897,7.9327 C111.2397,7.9327 112.0677,8.4497 112.0677,9.0717 C112.0677,9.4857 111.5497,9.7957 111.5497,9.7957 C111.1357,9.3817 110.6177,9.0717 109.8937,9.0717 C109.2737,9.0717 108.9627,9.2787 108.9627,9.5887 C108.9627,10.0027 109.3767,10.0027 110.1007,10.2097 C110.9287,10.4167 112.1707,10.6237 112.1707,11.8657 C112.1707,13.0037 111.2397,13.6247 109.6867,13.6247 C108.0317,13.6247 107.3067,13.1067 107.3067,12.3827 C107.4097,11.9687 107.9277,11.7617 107.9277,11.7617" id="Fill-43" fill="#009BDF"></path><path d="M33.9409,11.3476 C34.3549,11.8656 35.1829,12.3826 36.1139,12.3826 C36.9419,12.3826 37.4589,12.0726 37.4589,11.4516 C37.4589,10.8306 36.7349,10.7266 35.9069,10.5196 C34.7689,10.2096 33.5269,9.7956 33.5269,8.3476 C33.5269,7.0016 34.6649,6.0706 36.4239,6.0706 C38.1839,6.0706 39.0109,6.7946 39.0109,7.4156 C39.0109,7.9326 38.3909,8.3476 38.3909,8.2436 C37.9769,7.7256 37.2519,7.3116 36.4239,7.3116 C35.5969,7.3116 35.1829,7.6226 35.1829,8.2436 C35.1829,8.8646 35.8039,8.9676 36.7349,9.1746 C38.0799,9.4856 39.2179,10.0026 39.2179,11.4516 C39.2179,12.8996 38.1839,13.7276 36.2169,13.7276 C34.2519,13.7276 33.4229,12.8996 33.4229,12.2796 C33.3199,11.7616 33.9409,11.2436 33.9409,11.3476" id="Fill-45" fill="#009BDF"></path><path d="M42.8398,7.8296 C44.5988,7.8296 45.7368,8.9676 45.7368,10.7266 C45.7368,12.4866 44.4958,13.6246 42.7358,13.6246 C40.9778,13.6246 39.8398,12.4866 39.8398,10.7266 C39.8398,9.0716 41.0808,7.8296 42.8398,7.8296 M42.8398,12.3826 C43.7718,12.3826 44.3918,11.6586 44.3918,10.7266 C44.3918,9.7956 43.7718,9.0716 42.8398,9.0716 C41.9088,9.0716 41.2878,9.7956 41.2878,10.7266 C41.2878,11.6586 41.9088,12.3826 42.8398,12.3826" id="Fill-47" fill="#009BDF"></path><path d="M33.5269,17.3496 C33.5269,16.8316 33.7339,16.6246 34.2519,16.6246 L34.4589,16.6246 C34.9759,16.6246 35.1829,16.8316 35.1829,17.3496 L35.1829,19.6256 L38.3909,19.6256 L38.3909,17.3496 C38.3909,16.8316 38.5969,16.6246 39.1149,16.6246 L39.3219,16.6246 C39.8389,16.6246 40.0459,16.8316 40.0459,17.3496 L40.0459,23.2476 C40.0459,23.7656 39.8389,23.9726 39.3219,23.9726 L39.1149,23.9726 C38.7009,23.9726 38.3909,23.6616 38.3909,23.2476 L38.3909,20.9716 L35.1829,20.9716 L35.1829,23.2476 C35.1829,23.7656 34.9759,23.9726 34.4589,23.9726 L34.2519,23.9726 C33.8379,23.9726 33.5269,23.6616 33.5269,23.2476 L33.5269,17.3496 Z" id="Fill-49" fill="#009BDF"></path><path d="M43.7715,18.2812 C45.4265,18.2812 46.5655,19.4192 46.5655,21.0752 L46.5655,21.1782 C46.5655,21.4882 46.4615,21.5922 46.1515,21.5922 L42.3225,21.5922 C42.4265,22.4202 43.0465,22.9372 43.9785,22.9372 C44.8065,22.9372 45.3235,22.5232 45.5305,22.1092 C45.5305,22.1092 46.2545,22.2132 46.2545,22.8342 C46.2545,23.4552 45.4265,24.0752 43.8755,24.0752 C42.1155,24.0752 40.8745,22.9372 40.8745,21.1782 C40.8745,19.6262 42.1155,18.2812 43.7715,18.2812 L43.7715,18.2812 Z M45.0135,20.7642 C45.0135,20.0402 44.4955,19.5222 43.7715,19.5222 C43.0465,19.5222 42.4265,20.0402 42.3225,20.7642 L45.0135,20.7642 Z" id="Fill-51" fill="#009BDF"></path><path d="M50.7046,20.6611 L50.9116,20.6611 C50.9116,19.9361 50.4976,19.5221 49.7726,19.5221 C49.0486,19.5221 48.6346,19.9361 48.4276,20.3501 C48.4276,20.3501 47.3926,20.4541 47.3926,19.6261 C47.3926,18.9011 48.2206,18.2811 49.8766,18.2811 C51.6356,18.2811 52.4636,19.1081 52.4636,20.5571 L52.4636,23.8691 C52.4636,23.9731 52.1526,24.0751 51.8426,24.0751 C51.3256,24.0751 51.0146,23.7651 50.9116,23.2481 C50.4976,23.8691 49.7726,24.1791 49.0486,24.1791 C47.9106,24.1791 47.1856,23.5581 47.1856,22.6271 C47.0826,21.2821 48.2206,20.6611 50.7046,20.6611 M49.5656,23.0411 C50.3936,23.0411 50.9116,22.5231 50.9116,21.7991 L50.9116,21.4881 L50.6006,21.4881 C49.3596,21.4881 48.7386,21.7991 48.7386,22.4201 C48.6346,22.8341 48.9456,23.0411 49.5656,23.0411" id="Fill-53" fill="#009BDF"></path><path d="M53.498,16.3144 C53.498,16.2104 53.809,16.1074 54.119,16.1074 C54.637,16.1074 55.154,16.3144 55.154,17.3494 L55.154,23.2484 C55.154,23.8694 54.843,23.9724 54.43,23.9724 L54.223,23.9724 C53.809,23.9724 53.498,23.7654 53.498,23.2484 L53.498,16.3144 Z" id="Fill-55" fill="#009BDF"></path><path d="M56.8096,19.7295 L56.4986,19.7295 C56.0856,19.7295 55.8786,19.5225 55.8786,19.2115 L55.8786,19.1085 C55.8786,18.6945 56.0856,18.4885 56.4986,18.4885 L56.8096,18.4885 L56.8096,17.7635 C56.8096,17.2465 57.1206,17.0395 57.5336,17.0395 L57.6376,17.0395 C58.0516,17.0395 58.3616,17.2465 58.3616,17.7635 L58.3616,18.4885 L59.2926,18.4885 C59.7066,18.4885 59.9136,18.6945 59.9136,19.0045 L59.9136,19.1085 C59.9136,19.5225 59.7066,19.7295 59.2926,19.7295 L58.2576,19.7295 L58.2576,22.1095 C58.2576,22.6265 58.4646,22.9375 58.8786,22.9375 C59.1896,22.9375 59.3966,22.7305 59.6036,22.5235 C59.6036,22.5235 60.0176,22.7305 60.0176,23.1445 C60.0176,23.6625 59.4996,24.1785 58.5686,24.1785 C57.3276,24.1785 56.8096,23.5585 56.8096,22.3165 L56.8096,19.7295 Z" id="Fill-57" fill="#009BDF"></path><path d="M60.8457,16.3144 C60.8457,16.2104 61.1557,16.1074 61.4657,16.1074 C61.9837,16.1074 62.5007,16.3144 62.5007,17.3494 L62.5007,19.3154 C62.8117,18.6944 63.4327,18.2814 64.2597,18.2814 C65.7087,18.2814 66.3287,19.3154 66.3287,20.6614 L66.3287,23.2484 C66.3287,23.8694 66.0197,23.9724 65.6057,23.9724 L65.3987,23.9724 C64.9847,23.9724 64.6737,23.7654 64.6737,23.2484 L64.6737,20.8684 C64.6737,20.1434 64.2597,19.6264 63.6387,19.6264 C62.9147,19.6264 62.3977,20.1434 62.3977,20.8684 L62.3977,23.1444 C62.3977,23.7654 62.0867,23.8694 61.6727,23.8694 L61.4657,23.8694 C61.0517,23.8694 60.7417,23.6624 60.7417,23.1444 L60.7417,16.3144 L60.8457,16.3144 Z" id="Fill-59" fill="#009BDF"></path></g></g></g></g></svg>